<?xml version="1.0" encoding="UTF-8" standalone="no"?>
<!DOCTYPE svg PUBLIC "-//W3C//DTD SVG 1.1//EN"
 "http://www.w3.org/Graphics/SVG/1.1/DTD/svg11.dtd">
<!-- Generated by graphviz version 2.40.1 (20161225.0304)
 -->
<!-- Title: G Pages: 1 -->
<svg width="165pt" height="161pt"
 viewBox="0.00 0.00 164.50 161.00" xmlns="http://www.w3.org/2000/svg" xmlns:xlink="http://www.w3.org/1999/xlink">
<g id="graph0" class="graph" transform="scale(1 1) rotate(0) translate(4 157)">
<title>G</title>
<polygon fill="#ffffff" stroke="transparent" points="-4,4 -4,-157 160.5,-157 160.5,4 -4,4"/>
<!-- node112167559240 -->
<g id="node1" class="node">
<title>node112167559240</title>
<polygon fill="#fefecd" stroke="#444443" stroke-width=".5" points="91.5,-153 22.5,-153 22.5,-97 91.5,-97 91.5,-153"/>
<polygon fill="#fefecd" stroke="transparent" points="25,-137 25,-151 90,-151 90,-137 25,-137"/>
<polyline fill="none" stroke="#444443" points="25,-137 90,-137 "/>
<text text-anchor="start" x="26" y="-141.2" font-family="Times,serif" font-style="italic" font-size="11.00" fill="#444443">DecisionNode</text>
<polygon fill="#fefecd" stroke="transparent" points="25,-135 25,-137 90,-137 90,-135 25,-135"/>
<polygon fill="#fefecd" stroke="transparent" points="25,-121 25,-135 56,-135 56,-121 25,-121"/>
<polyline fill="none" stroke="#444443" points="56,-121 56,-135 "/>
<text text-anchor="start" x="32" y="-125.2" font-family="Helvetica,sans-Serif" font-size="11.00" fill="#444443">split </text>
<polygon fill="#fefecd" stroke="transparent" points="59,-121 59,-135 90,-135 90,-121 59,-121"/>
<text text-anchor="start" x="60" y="-125.2" font-family="Helvetica,sans-Serif" font-size="11.00" fill="#444443"> &#39;850&#39;</text>
<polyline fill="none" stroke="#444443" points="25,-118 90,-118 "/>
<polygon fill="#fefecd" stroke="transparent" points="25,-116 25,-118 90,-118 90,-116 25,-116"/>
<polygon fill="#fefecd" stroke="transparent" points="25,-107 25,-116 56,-116 56,-107 25,-107"/>
<polyline fill="none" stroke="#444443" points="56,-107 56,-116 "/>
<text text-anchor="start" x="26" y="-110.2" font-family="Helvetica,sans-Serif" font-size="6.00" fill="#444443">left</text>
<polygon fill="#fefecd" stroke="transparent" points="56,-107 56,-116 59,-116 59,-107 56,-107"/>
<polygon fill="#fefecd" stroke="transparent" points="59,-107 59,-116 90,-116 90,-107 59,-107"/>
<text text-anchor="start" x="77" y="-110.2" font-family="Helvetica,sans-Serif" font-size="6.00" fill="#444443">right</text>
<polygon fill="#fefecd" stroke="transparent" points="25,-104 25,-107 56,-107 56,-104 25,-104"/>
<polyline fill="none" stroke="#444443" points="56,-104 56,-107 "/>
<text text-anchor="start" x="40" y="-105.2" font-family="Helvetica,sans-Serif" font-size="1.00" fill="#444443"> </text>
<polygon fill="#fefecd" stroke="transparent" points="56,-104 56,-107 59,-107 59,-104 56,-104"/>
<polygon fill="#fefecd" stroke="transparent" points="59,-104 59,-107 90,-107 90,-104 59,-104"/>
<text text-anchor="start" x="74" y="-105.2" font-family="Helvetica,sans-Serif" font-size="1.00" fill="#444443"> </text>
<polygon fill="#fefecd" stroke="transparent" points="25,-99 25,-104 56,-104 56,-99 25,-99"/>
<polyline fill="none" stroke="#444443" points="56,-99 56,-104 "/>
<text text-anchor="start" x="40" y="-100.6" font-family="Helvetica,sans-Serif" font-size="3.00" fill="#444443"> </text>
<polygon fill="#fefecd" stroke="transparent" points="56,-99 56,-104 59,-104 59,-99 56,-99"/>
<polygon fill="#fefecd" stroke="transparent" points="59,-99 59,-104 90,-104 90,-99 59,-99"/>
<text text-anchor="start" x="74" y="-100.6" font-family="Helvetica,sans-Serif" font-size="3.00" fill="#444443"> </text>
</g>
<!-- node112167559576 -->
<g id="node2" class="node">
<title>node112167559576</title>
<polygon fill="#fefecd" stroke="#444443" stroke-width=".5" points="54.5,-75 5.5,-75 5.5,-41 54.5,-41 54.5,-75"/>
<polygon fill="#fefecd" stroke="transparent" points="8,-59 8,-73 53,-73 53,-59 8,-59"/>
<polyline fill="none" stroke="#444443" points="8,-59 53,-59 "/>
<text text-anchor="start" x="9" y="-63.2" font-family="Times,serif" font-style="italic" font-size="11.00" fill="#444443">LeafNode</text>
<polygon fill="#fefecd" stroke="transparent" points="8,-57 8,-59 53,-59 53,-57 8,-57"/>
<polygon fill="#fefecd" stroke="transparent" points="8,-43 8,-57 28,-57 28,-43 8,-43"/>
<polyline fill="none" stroke="#444443" points="28,-43 28,-57 "/>
<text text-anchor="start" x="18" y="-47.2" font-family="Helvetica,sans-Serif" font-size="11.00" fill="#444443">y </text>
<polygon fill="#fefecd" stroke="transparent" points="33,-43 33,-57 53,-57 53,-43 33,-43"/>
<text text-anchor="start" x="34" y="-47.2" font-family="Helvetica,sans-Serif" font-size="11.00" fill="#444443"> &#160;&#160;&#160;</text>
</g>
<!-- node112167559240&#45;&gt;node112167559576 -->
<g id="edge1" class="edge">
<title>node112167559240:c&#45;&gt;node112167559576</title>
<path fill="none" stroke="#444443" stroke-width=".5" d="M39.2657,-101.5487C38.2574,-96.8099 36.3622,-87.9022 34.5472,-79.3717"/>
<ellipse fill="#444443" stroke="#444443" stroke-width=".5" cx="39.667" cy="-103.435" rx="1.6" ry="1.6"/>
<polygon fill="#444443" stroke="#444443" stroke-width=".5" points="35.8687,-78.8552 33.6668,-75.2342 33.13,-79.438 35.8687,-78.8552"/>
</g>
<!-- node112167559800 -->
<g id="node4" class="node">
<title>node112167559800</title>
<polygon fill="#fefecd" stroke="#444443" stroke-width=".5" points="116.5,-75 67.5,-75 67.5,-41 116.5,-41 116.5,-75"/>
<polygon fill="#fefecd" stroke="transparent" points="70,-59 70,-73 115,-73 115,-59 70,-59"/>
<polyline fill="none" stroke="#444443" points="70,-59 115,-59 "/>
<text text-anchor="start" x="71" y="-63.2" font-family="Times,serif" font-style="italic" font-size="11.00" fill="#444443">LeafNode</text>
<polygon fill="#fefecd" stroke="transparent" points="70,-57 70,-59 115,-59 115,-57 70,-57"/>
<polygon fill="#fefecd" stroke="transparent" points="70,-43 70,-57 90,-57 90,-43 70,-43"/>
<polyline fill="none" stroke="#444443" points="90,-43 90,-57 "/>
<text text-anchor="start" x="80" y="-47.2" font-family="Helvetica,sans-Serif" font-size="11.00" fill="#444443">y </text>
<polygon fill="#fefecd" stroke="transparent" points="95,-43 95,-57 115,-57 115,-43 95,-43"/>
<text text-anchor="start" x="96" y="-47.2" font-family="Helvetica,sans-Serif" font-size="11.00" fill="#444443"> &#160;&#160;&#160;</text>
</g>
<!-- node112167559240&#45;&gt;node112167559800 -->
<g id="edge2" class="edge">
<title>node112167559240:c&#45;&gt;node112167559800</title>
<path fill="none" stroke="#444443" stroke-width=".5" d="M76.1212,-101.9003C77.7935,-97.2769 81.0833,-88.1814 84.2369,-79.4627"/>
<ellipse fill="#444443" stroke="#444443" stroke-width=".5" cx="75.5442" cy="-103.4954" rx="1.6" ry="1.6"/>
<polygon fill="#444443" stroke="#444443" stroke-width=".5" points="85.7223,-79.4719 85.7664,-75.2342 83.0892,-78.5195 85.7223,-79.4719"/>
</g>
<!-- node112167559464 -->
<g id="node3" class="node">
<title>node112167559464</title>
<polygon fill="none" stroke="#000000" stroke-width=".5" points="60,-19 0,-19 0,0 60,0 60,-19"/>
<polygon fill="#fefecd" stroke="transparent" points="1,-.5 1,-17.5 30,-17.5 30,-.5 1,-.5"/>
<text text-anchor="start" x="4" y="-6.5" font-family="Helvetica,sans-Serif" font-size="10.00" fill="#444443">1160</text>
<polygon fill="#fefecd" stroke="transparent" points="30,-.5 30,-17.5 59,-17.5 59,-.5 30,-.5"/>
<text text-anchor="start" x="33" y="-6.5" font-family="Helvetica,sans-Serif" font-size="10.00" fill="#444443">1200</text>
</g>
<!-- node112167559576&#45;&gt;node112167559464 -->
<g id="edge3" class="edge">
<title>node112167559576:c&#45;&gt;node112167559464</title>
<path fill="none" stroke="#444443" stroke-width=".5" d="M42.0015,-46.8893C40.3949,-41.8843 37.1414,-31.7482 34.4267,-23.2909"/>
<ellipse fill="#444443" stroke="#444443" stroke-width=".5" cx="42.511" cy="-48.4766" rx="1.6" ry="1.6"/>
<polygon fill="#444443" stroke="#444443" stroke-width=".5" points="35.7025,-22.6846 33.1469,-19.3039 33.0365,-23.5404 35.7025,-22.6846"/>
</g>
<!-- node112167560752 -->
<g id="node5" class="node">
<title>node112167560752</title>
<polygon fill="none" stroke="#000000" stroke-width=".5" points="156.5,-19 67.5,-19 67.5,0 156.5,0 156.5,-19"/>
<polygon fill="#fefecd" stroke="transparent" points="69,-.5 69,-17.5 98,-17.5 98,-.5 69,-.5"/>
<text text-anchor="start" x="72" y="-6.5" font-family="Helvetica,sans-Serif" font-size="10.00" fill="#444443">1280</text>
<polygon fill="#fefecd" stroke="transparent" points="98,-.5 98,-17.5 127,-17.5 127,-.5 98,-.5"/>
<text text-anchor="start" x="101" y="-6.5" font-family="Helvetica,sans-Serif" font-size="10.00" fill="#444443">1450</text>
<polygon fill="#fefecd" stroke="transparent" points="127,-.5 127,-17.5 156,-17.5 156,-.5 127,-.5"/>
<text text-anchor="start" x="130" y="-6.5" font-family="Helvetica,sans-Serif" font-size="10.00" fill="#444443">1300</text>
</g>
<!-- node112167559800&#45;&gt;node112167560752 -->
<g id="edge4" class="edge">
<title>node112167559800:c&#45;&gt;node112167560752</title>
<path fill="none" stroke="#444443" stroke-width=".5" d="M105.6021,-46.5163C106.4744,-41.4694 108.14,-31.8327 109.5531,-23.6572"/>
<ellipse fill="#444443" stroke="#444443" stroke-width=".5" cx="105.2725" cy="-48.4234" rx="1.6" ry="1.6"/>
<polygon fill="#444443" stroke="#444443" stroke-width=".5" points="111.0037,-23.4839 110.3055,-19.3039 108.2446,-23.007 111.0037,-23.4839"/>
</g>
</g>
</svg>