<?xml version="1.0" encoding="UTF-8" standalone="no"?>
<!DOCTYPE svg PUBLIC "-//W3C//DTD SVG 1.1//EN"
 "http://www.w3.org/Graphics/SVG/1.1/DTD/svg11.dtd">
<!-- Generated by graphviz version 2.40.1 (20161225.0304)
 -->
<!-- Title: G Pages: 1 -->
<svg width="225pt" height="239pt"
 viewBox="0.00 0.00 225.00 239.00" xmlns="http://www.w3.org/2000/svg" xmlns:xlink="http://www.w3.org/1999/xlink">
<g id="graph0" class="graph" transform="scale(1 1) rotate(0) translate(4 235)">
<title>G</title>
<polygon fill="#ffffff" stroke="transparent" points="-4,4 -4,-235 221,-235 221,4 -4,4"/>
<!-- node112189764328 -->
<g id="node1" class="node">
<title>node112189764328</title>
<polygon fill="#fefecd" stroke="#444443" stroke-width=".5" points="142,-231 73,-231 73,-175 142,-175 142,-231"/>
<polygon fill="#fefecd" stroke="transparent" points="75.5,-215 75.5,-229 140.5,-229 140.5,-215 75.5,-215"/>
<polyline fill="none" stroke="#444443" points="75.5,-215 140.5,-215 "/>
<text text-anchor="start" x="76.5" y="-219.2" font-family="Times,serif" font-style="italic" font-size="11.00" fill="#444443">DecisionNode</text>
<polygon fill="#fefecd" stroke="transparent" points="75.5,-213 75.5,-215 140.5,-215 140.5,-213 75.5,-213"/>
<polygon fill="#fefecd" stroke="transparent" points="75.5,-199 75.5,-213 106.5,-213 106.5,-199 75.5,-199"/>
<polyline fill="none" stroke="#444443" points="106.5,-199 106.5,-213 "/>
<text text-anchor="start" x="82.5" y="-203.2" font-family="Helvetica,sans-Serif" font-size="11.00" fill="#444443">split </text>
<polygon fill="#fefecd" stroke="transparent" points="109.5,-199 109.5,-213 140.5,-213 140.5,-199 109.5,-199"/>
<text text-anchor="start" x="110.5" y="-203.2" font-family="Helvetica,sans-Serif" font-size="11.00" fill="#444443"> &#39;600&#39;</text>
<polyline fill="none" stroke="#444443" points="75.5,-196 140.5,-196 "/>
<polygon fill="#fefecd" stroke="transparent" points="75.5,-194 75.5,-196 140.5,-196 140.5,-194 75.5,-194"/>
<polygon fill="#fefecd" stroke="transparent" points="75.5,-185 75.5,-194 106.5,-194 106.5,-185 75.5,-185"/>
<polyline fill="none" stroke="#444443" points="106.5,-185 106.5,-194 "/>
<text text-anchor="start" x="76.5" y="-188.2" font-family="Helvetica,sans-Serif" font-size="6.00" fill="#444443">left</text>
<polygon fill="#fefecd" stroke="transparent" points="106.5,-185 106.5,-194 109.5,-194 109.5,-185 106.5,-185"/>
<polygon fill="#fefecd" stroke="transparent" points="109.5,-185 109.5,-194 140.5,-194 140.5,-185 109.5,-185"/>
<text text-anchor="start" x="127.5" y="-188.2" font-family="Helvetica,sans-Serif" font-size="6.00" fill="#444443">right</text>
<polygon fill="#fefecd" stroke="transparent" points="75.5,-182 75.5,-185 106.5,-185 106.5,-182 75.5,-182"/>
<polyline fill="none" stroke="#444443" points="106.5,-182 106.5,-185 "/>
<text text-anchor="start" x="90.5" y="-183.2" font-family="Helvetica,sans-Serif" font-size="1.00" fill="#444443"> </text>
<polygon fill="#fefecd" stroke="transparent" points="106.5,-182 106.5,-185 109.5,-185 109.5,-182 106.5,-182"/>
<polygon fill="#fefecd" stroke="transparent" points="109.5,-182 109.5,-185 140.5,-185 140.5,-182 109.5,-182"/>
<text text-anchor="start" x="124.5" y="-183.2" font-family="Helvetica,sans-Serif" font-size="1.00" fill="#444443"> </text>
<polygon fill="#fefecd" stroke="transparent" points="75.5,-177 75.5,-182 106.5,-182 106.5,-177 75.5,-177"/>
<polyline fill="none" stroke="#444443" points="106.5,-177 106.5,-182 "/>
<text text-anchor="start" x="90.5" y="-178.6" font-family="Helvetica,sans-Serif" font-size="3.00" fill="#444443"> </text>
<polygon fill="#fefecd" stroke="transparent" points="106.5,-177 106.5,-182 109.5,-182 109.5,-177 106.5,-177"/>
<polygon fill="#fefecd" stroke="transparent" points="109.5,-177 109.5,-182 140.5,-182 140.5,-177 109.5,-177"/>
<text text-anchor="start" x="124.5" y="-178.6" font-family="Helvetica,sans-Serif" font-size="3.00" fill="#444443"> </text>
</g>
<!-- node112184809624 -->
<g id="node2" class="node">
<title>node112184809624</title>
<polygon fill="#fefecd" stroke="#444443" stroke-width=".5" points="97,-153 28,-153 28,-97 97,-97 97,-153"/>
<polygon fill="#fefecd" stroke="transparent" points="30.5,-137 30.5,-151 95.5,-151 95.5,-137 30.5,-137"/>
<polyline fill="none" stroke="#444443" points="30.5,-137 95.5,-137 "/>
<text text-anchor="start" x="31.5" y="-141.2" font-family="Times,serif" font-style="italic" font-size="11.00" fill="#444443">DecisionNode</text>
<polygon fill="#fefecd" stroke="transparent" points="30.5,-135 30.5,-137 95.5,-137 95.5,-135 30.5,-135"/>
<polygon fill="#fefecd" stroke="transparent" points="30.5,-121 30.5,-135 61.5,-135 61.5,-121 30.5,-121"/>
<polyline fill="none" stroke="#444443" points="61.5,-121 61.5,-135 "/>
<text text-anchor="start" x="37.5" y="-125.2" font-family="Helvetica,sans-Serif" font-size="11.00" fill="#444443">split </text>
<polygon fill="#fefecd" stroke="transparent" points="64.5,-121 64.5,-135 95.5,-135 95.5,-121 64.5,-121"/>
<text text-anchor="start" x="65.5" y="-125.2" font-family="Helvetica,sans-Serif" font-size="11.00" fill="#444443"> &#39;200&#39;</text>
<polyline fill="none" stroke="#444443" points="30.5,-118 95.5,-118 "/>
<polygon fill="#fefecd" stroke="transparent" points="30.5,-116 30.5,-118 95.5,-118 95.5,-116 30.5,-116"/>
<polygon fill="#fefecd" stroke="transparent" points="30.5,-107 30.5,-116 61.5,-116 61.5,-107 30.5,-107"/>
<polyline fill="none" stroke="#444443" points="61.5,-107 61.5,-116 "/>
<text text-anchor="start" x="31.5" y="-110.2" font-family="Helvetica,sans-Serif" font-size="6.00" fill="#444443">left</text>
<polygon fill="#fefecd" stroke="transparent" points="61.5,-107 61.5,-116 64.5,-116 64.5,-107 61.5,-107"/>
<polygon fill="#fefecd" stroke="transparent" points="64.5,-107 64.5,-116 95.5,-116 95.5,-107 64.5,-107"/>
<text text-anchor="start" x="82.5" y="-110.2" font-family="Helvetica,sans-Serif" font-size="6.00" fill="#444443">right</text>
<polygon fill="#fefecd" stroke="transparent" points="30.5,-104 30.5,-107 61.5,-107 61.5,-104 30.5,-104"/>
<polyline fill="none" stroke="#444443" points="61.5,-104 61.5,-107 "/>
<text text-anchor="start" x="45.5" y="-105.2" font-family="Helvetica,sans-Serif" font-size="1.00" fill="#444443"> </text>
<polygon fill="#fefecd" stroke="transparent" points="61.5,-104 61.5,-107 64.5,-107 64.5,-104 61.5,-104"/>
<polygon fill="#fefecd" stroke="transparent" points="64.5,-104 64.5,-107 95.5,-107 95.5,-104 64.5,-104"/>
<text text-anchor="start" x="79.5" y="-105.2" font-family="Helvetica,sans-Serif" font-size="1.00" fill="#444443"> </text>
<polygon fill="#fefecd" stroke="transparent" points="30.5,-99 30.5,-104 61.5,-104 61.5,-99 30.5,-99"/>
<polyline fill="none" stroke="#444443" points="61.5,-99 61.5,-104 "/>
<text text-anchor="start" x="45.5" y="-100.6" font-family="Helvetica,sans-Serif" font-size="3.00" fill="#444443"> </text>
<polygon fill="#fefecd" stroke="transparent" points="61.5,-99 61.5,-104 64.5,-104 64.5,-99 61.5,-99"/>
<polygon fill="#fefecd" stroke="transparent" points="64.5,-99 64.5,-104 95.5,-104 95.5,-99 64.5,-99"/>
<text text-anchor="start" x="79.5" y="-100.6" font-family="Helvetica,sans-Serif" font-size="3.00" fill="#444443"> </text>
</g>
<!-- node112189764328&#45;&gt;node112184809624 -->
<g id="edge1" class="edge">
<title>node112189764328:c&#45;&gt;node112184809624</title>
<path fill="none" stroke="#444443" stroke-width=".5" d="M88.9497,-179.7887C86.7602,-175.2533 82.5306,-166.492 78.085,-157.2833"/>
<ellipse fill="#444443" stroke="#444443" stroke-width=".5" cx="89.8044" cy="-181.5591" rx="1.6" ry="1.6"/>
<polygon fill="#444443" stroke="#444443" stroke-width=".5" points="79.1717,-156.3139 76.1719,-153.3204 76.6502,-157.5313 79.1717,-156.3139"/>
</g>
<!-- node112189718936 -->
<g id="node7" class="node">
<title>node112189718936</title>
<polygon fill="#fefecd" stroke="#444443" stroke-width=".5" points="188,-153 119,-153 119,-97 188,-97 188,-153"/>
<polygon fill="#fefecd" stroke="transparent" points="121.5,-137 121.5,-151 186.5,-151 186.5,-137 121.5,-137"/>
<polyline fill="none" stroke="#444443" points="121.5,-137 186.5,-137 "/>
<text text-anchor="start" x="122.5" y="-141.2" font-family="Times,serif" font-style="italic" font-size="11.00" fill="#444443">DecisionNode</text>
<polygon fill="#fefecd" stroke="transparent" points="121.5,-135 121.5,-137 186.5,-137 186.5,-135 121.5,-135"/>
<polygon fill="#fefecd" stroke="transparent" points="121.5,-121 121.5,-135 152.5,-135 152.5,-121 121.5,-121"/>
<polyline fill="none" stroke="#444443" points="152.5,-121 152.5,-135 "/>
<text text-anchor="start" x="128.5" y="-125.2" font-family="Helvetica,sans-Serif" font-size="11.00" fill="#444443">split </text>
<polygon fill="#fefecd" stroke="transparent" points="155.5,-121 155.5,-135 186.5,-135 186.5,-121 155.5,-121"/>
<text text-anchor="start" x="156.5" y="-125.2" font-family="Helvetica,sans-Serif" font-size="11.00" fill="#444443"> &#39;800&#39;</text>
<polyline fill="none" stroke="#444443" points="121.5,-118 186.5,-118 "/>
<polygon fill="#fefecd" stroke="transparent" points="121.5,-116 121.5,-118 186.5,-118 186.5,-116 121.5,-116"/>
<polygon fill="#fefecd" stroke="transparent" points="121.5,-107 121.5,-116 152.5,-116 152.5,-107 121.5,-107"/>
<polyline fill="none" stroke="#444443" points="152.5,-107 152.5,-116 "/>
<text text-anchor="start" x="122.5" y="-110.2" font-family="Helvetica,sans-Serif" font-size="6.00" fill="#444443">left</text>
<polygon fill="#fefecd" stroke="transparent" points="152.5,-107 152.5,-116 155.5,-116 155.5,-107 152.5,-107"/>
<polygon fill="#fefecd" stroke="transparent" points="155.5,-107 155.5,-116 186.5,-116 186.5,-107 155.5,-107"/>
<text text-anchor="start" x="173.5" y="-110.2" font-family="Helvetica,sans-Serif" font-size="6.00" fill="#444443">right</text>
<polygon fill="#fefecd" stroke="transparent" points="121.5,-104 121.5,-107 152.5,-107 152.5,-104 121.5,-104"/>
<polyline fill="none" stroke="#444443" points="152.5,-104 152.5,-107 "/>
<text text-anchor="start" x="136.5" y="-105.2" font-family="Helvetica,sans-Serif" font-size="1.00" fill="#444443"> </text>
<polygon fill="#fefecd" stroke="transparent" points="152.5,-104 152.5,-107 155.5,-107 155.5,-104 152.5,-104"/>
<polygon fill="#fefecd" stroke="transparent" points="155.5,-104 155.5,-107 186.5,-107 186.5,-104 155.5,-104"/>
<text text-anchor="start" x="170.5" y="-105.2" font-family="Helvetica,sans-Serif" font-size="1.00" fill="#444443"> </text>
<polygon fill="#fefecd" stroke="transparent" points="121.5,-99 121.5,-104 152.5,-104 152.5,-99 121.5,-99"/>
<polyline fill="none" stroke="#444443" points="152.5,-99 152.5,-104 "/>
<text text-anchor="start" x="136.5" y="-100.6" font-family="Helvetica,sans-Serif" font-size="3.00" fill="#444443"> </text>
<polygon fill="#fefecd" stroke="transparent" points="152.5,-99 152.5,-104 155.5,-104 155.5,-99 152.5,-99"/>
<polygon fill="#fefecd" stroke="transparent" points="155.5,-99 155.5,-104 186.5,-104 186.5,-99 155.5,-99"/>
<text text-anchor="start" x="170.5" y="-100.6" font-family="Helvetica,sans-Serif" font-size="3.00" fill="#444443"> </text>
</g>
<!-- node112189764328&#45;&gt;node112189718936 -->
<g id="edge2" class="edge">
<title>node112189764328:c&#45;&gt;node112189718936</title>
<path fill="none" stroke="#444443" stroke-width=".5" d="M127.0503,-179.7887C129.2398,-175.2533 133.4694,-166.492 137.915,-157.2833"/>
<ellipse fill="#444443" stroke="#444443" stroke-width=".5" cx="126.1956" cy="-181.5591" rx="1.6" ry="1.6"/>
<polygon fill="#444443" stroke="#444443" stroke-width=".5" points="139.3498,-157.5313 139.8281,-153.3204 136.8283,-156.3139 139.3498,-157.5313"/>
</g>
<!-- node112185204128 -->
<g id="node3" class="node">
<title>node112185204128</title>
<polygon fill="#fefecd" stroke="#444443" stroke-width=".5" points="49,-75 0,-75 0,-41 49,-41 49,-75"/>
<polygon fill="#fefecd" stroke="transparent" points="2.5,-59 2.5,-73 47.5,-73 47.5,-59 2.5,-59"/>
<polyline fill="none" stroke="#444443" points="2.5,-59 47.5,-59 "/>
<text text-anchor="start" x="3.5" y="-63.2" font-family="Times,serif" font-style="italic" font-size="11.00" fill="#444443">LeafNode</text>
<polygon fill="#fefecd" stroke="transparent" points="2.5,-57 2.5,-59 47.5,-59 47.5,-57 2.5,-57"/>
<polygon fill="#fefecd" stroke="transparent" points="2.5,-43 2.5,-57 22.5,-57 22.5,-43 2.5,-43"/>
<polyline fill="none" stroke="#444443" points="22.5,-43 22.5,-57 "/>
<text text-anchor="start" x="12.5" y="-47.2" font-family="Helvetica,sans-Serif" font-size="11.00" fill="#444443">y </text>
<polygon fill="#fefecd" stroke="transparent" points="27.5,-43 27.5,-57 47.5,-57 47.5,-43 27.5,-43"/>
<text text-anchor="start" x="28.5" y="-47.2" font-family="Helvetica,sans-Serif" font-size="11.00" fill="#444443"> &#160;&#160;&#160;</text>
</g>
<!-- node112184809624&#45;&gt;node112185204128 -->
<g id="edge3" class="edge">
<title>node112184809624:c&#45;&gt;node112185204128</title>
<path fill="none" stroke="#444443" stroke-width=".5" d="M44.115,-101.9003C42.0117,-97.1928 37.8369,-87.8492 33.8774,-78.9876"/>
<ellipse fill="#444443" stroke="#444443" stroke-width=".5" cx="44.8473" cy="-103.5392" rx="1.6" ry="1.6"/>
<polygon fill="#444443" stroke="#444443" stroke-width=".5" points="35.1104,-78.3151 32.2004,-75.2342 32.554,-79.4574 35.1104,-78.3151"/>
</g>
<!-- node112189763824 -->
<g id="node5" class="node">
<title>node112189763824</title>
<polygon fill="#fefecd" stroke="#444443" stroke-width=".5" points="105,-75 56,-75 56,-41 105,-41 105,-75"/>
<polygon fill="#fefecd" stroke="transparent" points="58.5,-59 58.5,-73 103.5,-73 103.5,-59 58.5,-59"/>
<polyline fill="none" stroke="#444443" points="58.5,-59 103.5,-59 "/>
<text text-anchor="start" x="59.5" y="-63.2" font-family="Times,serif" font-style="italic" font-size="11.00" fill="#444443">LeafNode</text>
<polygon fill="#fefecd" stroke="transparent" points="58.5,-57 58.5,-59 103.5,-59 103.5,-57 58.5,-57"/>
<polygon fill="#fefecd" stroke="transparent" points="58.5,-43 58.5,-57 78.5,-57 78.5,-43 58.5,-43"/>
<polyline fill="none" stroke="#444443" points="78.5,-43 78.5,-57 "/>
<text text-anchor="start" x="68.5" y="-47.2" font-family="Helvetica,sans-Serif" font-size="11.00" fill="#444443">y </text>
<polygon fill="#fefecd" stroke="transparent" points="83.5,-43 83.5,-57 103.5,-57 103.5,-43 83.5,-43"/>
<text text-anchor="start" x="84.5" y="-47.2" font-family="Helvetica,sans-Serif" font-size="11.00" fill="#444443"> &#160;&#160;&#160;</text>
</g>
<!-- node112184809624&#45;&gt;node112189763824 -->
<g id="edge4" class="edge">
<title>node112184809624:c&#45;&gt;node112189763824</title>
<path fill="none" stroke="#444443" stroke-width=".5" d="M80.5,-101.5487C80.5,-96.8099 80.5,-87.9022 80.5,-79.3717"/>
<ellipse fill="#444443" stroke="#444443" stroke-width=".5" cx="80.5" cy="-103.4" rx="1.6" ry="1.6"/>
<polygon fill="#444443" stroke="#444443" stroke-width=".5" points="81.9001,-79.2342 80.5,-75.2342 79.1001,-79.2342 81.9001,-79.2342"/>
</g>
<!-- node112189721512 -->
<g id="node4" class="node">
<title>node112189721512</title>
<polygon fill="none" stroke="#000000" stroke-width=".5" points="44.5,-19 30.5,-19 30.5,0 44.5,0 44.5,-19"/>
<polygon fill="#fefecd" stroke="transparent" points="31.5,-.5 31.5,-17.5 43.5,-17.5 43.5,-.5 31.5,-.5"/>
<text text-anchor="start" x="34.5" y="-6.5" font-family="Helvetica,sans-Serif" font-size="10.00" fill="#444443">2</text>
</g>
<!-- node112185204128&#45;&gt;node112189721512 -->
<g id="edge5" class="edge">
<title>node112185204128:c&#45;&gt;node112189721512</title>
<path fill="none" stroke="#444443" stroke-width=".5" d="M37.5,-46.5163C37.5,-41.4694 37.5,-31.8327 37.5,-23.6572"/>
<ellipse fill="#444443" stroke="#444443" stroke-width=".5" cx="37.5" cy="-48.4" rx="1.6" ry="1.6"/>
<polygon fill="#444443" stroke="#444443" stroke-width=".5" points="38.9001,-23.3039 37.5,-19.3039 36.1001,-23.304 38.9001,-23.3039"/>
</g>
<!-- node112189765168 -->
<g id="node6" class="node">
<title>node112189765168</title>
<polygon fill="none" stroke="#000000" stroke-width=".5" points="100.5,-19 86.5,-19 86.5,0 100.5,0 100.5,-19"/>
<polygon fill="#fefecd" stroke="transparent" points="87.5,-.5 87.5,-17.5 99.5,-17.5 99.5,-.5 87.5,-.5"/>
<text text-anchor="start" x="90.5" y="-6.5" font-family="Helvetica,sans-Serif" font-size="10.00" fill="#444443">3</text>
</g>
<!-- node112189763824&#45;&gt;node112189765168 -->
<g id="edge6" class="edge">
<title>node112189763824:c&#45;&gt;node112189765168</title>
<path fill="none" stroke="#444443" stroke-width=".5" d="M93.5,-46.5163C93.5,-41.4694 93.5,-31.8327 93.5,-23.6572"/>
<ellipse fill="#444443" stroke="#444443" stroke-width=".5" cx="93.5" cy="-48.4" rx="1.6" ry="1.6"/>
<polygon fill="#444443" stroke="#444443" stroke-width=".5" points="94.9001,-23.3039 93.5,-19.3039 92.1001,-23.304 94.9001,-23.3039"/>
</g>
<!-- node112189679432 -->
<g id="node8" class="node">
<title>node112189679432</title>
<polygon fill="#fefecd" stroke="#444443" stroke-width=".5" points="161,-75 112,-75 112,-41 161,-41 161,-75"/>
<polygon fill="#fefecd" stroke="transparent" points="114.5,-59 114.5,-73 159.5,-73 159.5,-59 114.5,-59"/>
<polyline fill="none" stroke="#444443" points="114.5,-59 159.5,-59 "/>
<text text-anchor="start" x="115.5" y="-63.2" font-family="Times,serif" font-style="italic" font-size="11.00" fill="#444443">LeafNode</text>
<polygon fill="#fefecd" stroke="transparent" points="114.5,-57 114.5,-59 159.5,-59 159.5,-57 114.5,-57"/>
<polygon fill="#fefecd" stroke="transparent" points="114.5,-43 114.5,-57 134.5,-57 134.5,-43 114.5,-43"/>
<polyline fill="none" stroke="#444443" points="134.5,-43 134.5,-57 "/>
<text text-anchor="start" x="124.5" y="-47.2" font-family="Helvetica,sans-Serif" font-size="11.00" fill="#444443">y </text>
<polygon fill="#fefecd" stroke="transparent" points="139.5,-43 139.5,-57 159.5,-57 159.5,-43 139.5,-43"/>
<text text-anchor="start" x="140.5" y="-47.2" font-family="Helvetica,sans-Serif" font-size="11.00" fill="#444443"> &#160;&#160;&#160;</text>
</g>
<!-- node112189718936&#45;&gt;node112189679432 -->
<g id="edge7" class="edge">
<title>node112189718936:c&#45;&gt;node112189679432</title>
<path fill="none" stroke="#444443" stroke-width=".5" d="M136.5,-101.5487C136.5,-96.8099 136.5,-87.9022 136.5,-79.3717"/>
<ellipse fill="#444443" stroke="#444443" stroke-width=".5" cx="136.5" cy="-103.4" rx="1.6" ry="1.6"/>
<polygon fill="#444443" stroke="#444443" stroke-width=".5" points="137.9001,-79.2342 136.5,-75.2342 135.1001,-79.2342 137.9001,-79.2342"/>
</g>
<!-- node112189764720 -->
<g id="node10" class="node">
<title>node112189764720</title>
<polygon fill="#fefecd" stroke="#444443" stroke-width=".5" points="217,-75 168,-75 168,-41 217,-41 217,-75"/>
<polygon fill="#fefecd" stroke="transparent" points="170.5,-59 170.5,-73 215.5,-73 215.5,-59 170.5,-59"/>
<polyline fill="none" stroke="#444443" points="170.5,-59 215.5,-59 "/>
<text text-anchor="start" x="171.5" y="-63.2" font-family="Times,serif" font-style="italic" font-size="11.00" fill="#444443">LeafNode</text>
<polygon fill="#fefecd" stroke="transparent" points="170.5,-57 170.5,-59 215.5,-59 215.5,-57 170.5,-57"/>
<polygon fill="#fefecd" stroke="transparent" points="170.5,-43 170.5,-57 190.5,-57 190.5,-43 170.5,-43"/>
<polyline fill="none" stroke="#444443" points="190.5,-43 190.5,-57 "/>
<text text-anchor="start" x="180.5" y="-47.2" font-family="Helvetica,sans-Serif" font-size="11.00" fill="#444443">y </text>
<polygon fill="#fefecd" stroke="transparent" points="195.5,-43 195.5,-57 215.5,-57 215.5,-43 195.5,-43"/>
<text text-anchor="start" x="196.5" y="-47.2" font-family="Helvetica,sans-Serif" font-size="11.00" fill="#444443"> &#160;&#160;&#160;</text>
</g>
<!-- node112189718936&#45;&gt;node112189764720 -->
<g id="edge8" class="edge">
<title>node112189718936:c&#45;&gt;node112189764720</title>
<path fill="none" stroke="#444443" stroke-width=".5" d="M172.885,-101.9003C174.9883,-97.1928 179.1631,-87.8492 183.1226,-78.9876"/>
<ellipse fill="#444443" stroke="#444443" stroke-width=".5" cx="172.1527" cy="-103.5392" rx="1.6" ry="1.6"/>
<polygon fill="#444443" stroke="#444443" stroke-width=".5" points="184.446,-79.4574 184.7996,-75.2342 181.8896,-78.3151 184.446,-79.4574"/>
</g>
<!-- node112189766120 -->
<g id="node9" class="node">
<title>node112189766120</title>
<polygon fill="none" stroke="#000000" stroke-width=".5" points="168.5,-19 130.5,-19 130.5,0 168.5,0 168.5,-19"/>
<polygon fill="#fefecd" stroke="transparent" points="131.5,-.5 131.5,-17.5 149.5,-17.5 149.5,-.5 131.5,-.5"/>
<text text-anchor="start" x="134.5" y="-6.5" font-family="Helvetica,sans-Serif" font-size="10.00" fill="#444443">10</text>
<polygon fill="#fefecd" stroke="transparent" points="149.5,-.5 149.5,-17.5 167.5,-17.5 167.5,-.5 149.5,-.5"/>
<text text-anchor="start" x="152.5" y="-6.5" font-family="Helvetica,sans-Serif" font-size="10.00" fill="#444443">11</text>
</g>
<!-- node112189679432&#45;&gt;node112189766120 -->
<g id="edge9" class="edge">
<title>node112189679432:c&#45;&gt;node112189766120</title>
<path fill="none" stroke="#444443" stroke-width=".5" d="M149.5,-46.5163C149.5,-41.4694 149.5,-31.8327 149.5,-23.6572"/>
<ellipse fill="#444443" stroke="#444443" stroke-width=".5" cx="149.5" cy="-48.4" rx="1.6" ry="1.6"/>
<polygon fill="#444443" stroke="#444443" stroke-width=".5" points="150.9001,-23.3039 149.5,-19.3039 148.1001,-23.304 150.9001,-23.3039"/>
</g>
<!-- node112189765448 -->
<g id="node11" class="node">
<title>node112189765448</title>
<polygon fill="none" stroke="#000000" stroke-width=".5" points="212.5,-19 198.5,-19 198.5,0 212.5,0 212.5,-19"/>
<polygon fill="#fefecd" stroke="transparent" points="199.5,-.5 199.5,-17.5 211.5,-17.5 211.5,-.5 199.5,-.5"/>
<text text-anchor="start" x="202.5" y="-6.5" font-family="Helvetica,sans-Serif" font-size="10.00" fill="#444443">9</text>
</g>
<!-- node112189764720&#45;&gt;node112189765448 -->
<g id="edge10" class="edge">
<title>node112189764720:c&#45;&gt;node112189765448</title>
<path fill="none" stroke="#444443" stroke-width=".5" d="M205.5,-46.5163C205.5,-41.4694 205.5,-31.8327 205.5,-23.6572"/>
<ellipse fill="#444443" stroke="#444443" stroke-width=".5" cx="205.5" cy="-48.4" rx="1.6" ry="1.6"/>
<polygon fill="#444443" stroke="#444443" stroke-width=".5" points="206.9001,-23.3039 205.5,-19.3039 204.1001,-23.304 206.9001,-23.3039"/>
</g>
</g>
</svg>