<?xml version="1.0" encoding="UTF-8" standalone="no"?>
<!DOCTYPE svg PUBLIC "-//W3C//DTD SVG 1.1//EN"
 "http://www.w3.org/Graphics/SVG/1.1/DTD/svg11.dtd">
<!-- Generated by graphviz version 2.43.0 (0)
 -->
<!-- Title: G Pages: 1 -->
<svg width="175pt" height="161pt"
 viewBox="0.00 0.00 174.50 161.00" xmlns="http://www.w3.org/2000/svg" xmlns:xlink="http://www.w3.org/1999/xlink">
<g id="graph0" class="graph" transform="scale(1 1) rotate(0) translate(4 157)">
<title>G</title>
<polygon fill="white" stroke="transparent" points="-4,4 -4,-157 170.5,-157 170.5,4 -4,4"/>
<!-- node140408362820704 -->
<g id="node1" class="node">
<title>node140408362820704</title>
<polygon fill="#fefecd" stroke="#444443" stroke-width="0.5" points="130.5,-153 45.5,-153 45.5,-97 130.5,-97 130.5,-153"/>
<polygon fill="#fefecd" stroke="transparent" points="48,-137 48,-151 129,-151 129,-137 48,-137"/>
<polyline fill="none" stroke="#444443" points="48,-137 129,-137 "/>
<text text-anchor="start" x="49" y="-141.2" font-family="Times,serif" font-style="italic" font-size="11.00" fill="#444443">DecisionNode</text>
<polygon fill="#fefecd" stroke="transparent" points="48,-135 48,-137 129,-137 129,-135 48,-135"/>
<polygon fill="#fefecd" stroke="transparent" points="48,-121 48,-135 87,-135 87,-121 48,-121"/>
<polyline fill="none" stroke="#444443" points="87,-121 87,-135 "/>
<text text-anchor="start" x="58" y="-125.2" font-family="Helvetica,sans-Serif" font-size="11.00" fill="#444443">split </text>
<polygon fill="#fefecd" stroke="transparent" points="91,-121 91,-135 129,-135 129,-121 91,-121"/>
<text text-anchor="start" x="92" y="-125.2" font-family="Helvetica,sans-Serif" font-size="11.00" fill="#444443"> &#39;950&#39;</text>
<polyline fill="none" stroke="#444443" points="48,-118 129,-118 "/>
<polygon fill="#fefecd" stroke="transparent" points="48,-116 48,-118 129,-118 129,-116 48,-116"/>
<polygon fill="#fefecd" stroke="transparent" points="48,-107 48,-116 87,-116 87,-107 48,-107"/>
<polyline fill="none" stroke="#444443" points="87,-107 87,-116 "/>
<text text-anchor="start" x="49" y="-110.2" font-family="Helvetica,sans-Serif" font-size="6.00" fill="#444443">left</text>
<polygon fill="#fefecd" stroke="transparent" points="87,-107 87,-116 91,-116 91,-107 87,-107"/>
<polygon fill="#fefecd" stroke="transparent" points="91,-107 91,-116 129,-116 129,-107 91,-107"/>
<text text-anchor="start" x="114" y="-110.2" font-family="Helvetica,sans-Serif" font-size="6.00" fill="#444443">right</text>
<polygon fill="#fefecd" stroke="transparent" points="48,-104 48,-107 87,-107 87,-104 48,-104"/>
<polyline fill="none" stroke="#444443" points="87,-104 87,-107 "/>
<text text-anchor="start" x="67.36" y="-105.1" font-family="Helvetica,sans-Serif" font-size="1.00" fill="#444443"> </text>
<polygon fill="#fefecd" stroke="transparent" points="87,-104 87,-107 91,-107 91,-104 87,-104"/>
<polygon fill="#fefecd" stroke="transparent" points="91,-104 91,-107 129,-107 129,-104 91,-104"/>
<text text-anchor="start" x="109.86" y="-105.2" font-family="Helvetica,sans-Serif" font-size="1.00" fill="#444443"> </text>
<polygon fill="#fefecd" stroke="transparent" points="48,-99 48,-104 87,-104 87,-99 48,-99"/>
<polyline fill="none" stroke="#444443" points="87,-99 87,-104 "/>
<text text-anchor="start" x="67" y="-100.6" font-family="Helvetica,sans-Serif" font-size="3.00" fill="#444443"> </text>
<polygon fill="#fefecd" stroke="transparent" points="87,-99 87,-104 91,-104 91,-99 87,-99"/>
<polygon fill="#fefecd" stroke="transparent" points="91,-99 91,-104 129,-104 129,-99 91,-99"/>
<text text-anchor="start" x="109.5" y="-100.6" font-family="Helvetica,sans-Serif" font-size="3.00" fill="#444443"> </text>
</g>
<!-- node140408362820464 -->
<g id="node2" class="node">
<title>node140408362820464</title>
<polygon fill="#fefecd" stroke="#444443" stroke-width="0.5" points="85.5,-75 24.5,-75 24.5,-41 85.5,-41 85.5,-75"/>
<polygon fill="#fefecd" stroke="transparent" points="27,-59 27,-73 84,-73 84,-59 27,-59"/>
<polyline fill="none" stroke="#444443" points="27,-59 84,-59 "/>
<text text-anchor="start" x="28" y="-63.2" font-family="Times,serif" font-style="italic" font-size="11.00" fill="#444443">LeafNode</text>
<polygon fill="#fefecd" stroke="transparent" points="27,-57 27,-59 84,-59 84,-57 27,-57"/>
<polygon fill="#fefecd" stroke="transparent" points="27,-43 27,-57 53,-57 53,-43 27,-43"/>
<polyline fill="none" stroke="#444443" points="53,-43 53,-57 "/>
<text text-anchor="start" x="41" y="-47.2" font-family="Helvetica,sans-Serif" font-size="11.00" fill="#444443">y </text>
<polygon fill="#fefecd" stroke="transparent" points="59,-43 59,-57 84,-57 84,-43 59,-43"/>
<text text-anchor="start" x="60" y="-47.2" font-family="Helvetica,sans-Serif" font-size="11.00" fill="#444443"> &#160;&#160;&#160;</text>
</g>
<!-- node140408362820704&#45;&gt;node140408362820464 -->
<g id="edge1" class="edge">
<title>node140408362820704:c&#45;&gt;node140408362820464</title>
<path fill="none" stroke="#444443" stroke-width="0.5" d="M66.11,-100.65C64.88,-96.06 62.58,-87.44 60.39,-79.23"/>
<ellipse fill="#444443" stroke="#444443" stroke-width="0.5" cx="66.59" cy="-102.45" rx="1.6" ry="1.6"/>
<polygon fill="#444443" stroke="#444443" stroke-width="0.5" points="61.72,-78.75 59.33,-75.25 59.01,-79.47 61.72,-78.75"/>
</g>
<!-- node140408362823200 -->
<g id="node4" class="node">
<title>node140408362823200</title>
<polygon fill="#fefecd" stroke="#444443" stroke-width="0.5" points="158.5,-75 97.5,-75 97.5,-41 158.5,-41 158.5,-75"/>
<polygon fill="#fefecd" stroke="transparent" points="100,-59 100,-73 157,-73 157,-59 100,-59"/>
<polyline fill="none" stroke="#444443" points="100,-59 157,-59 "/>
<text text-anchor="start" x="101" y="-63.2" font-family="Times,serif" font-style="italic" font-size="11.00" fill="#444443">LeafNode</text>
<polygon fill="#fefecd" stroke="transparent" points="100,-57 100,-59 157,-59 157,-57 100,-57"/>
<polygon fill="#fefecd" stroke="transparent" points="100,-43 100,-57 126,-57 126,-43 100,-43"/>
<polyline fill="none" stroke="#444443" points="126,-43 126,-57 "/>
<text text-anchor="start" x="114" y="-47.2" font-family="Helvetica,sans-Serif" font-size="11.00" fill="#444443">y </text>
<polygon fill="#fefecd" stroke="transparent" points="132,-43 132,-57 157,-57 157,-43 132,-43"/>
<text text-anchor="start" x="133" y="-47.2" font-family="Helvetica,sans-Serif" font-size="11.00" fill="#444443"> &#160;&#160;&#160;</text>
</g>
<!-- node140408362820704&#45;&gt;node140408362823200 -->
<g id="edge2" class="edge">
<title>node140408362820704:c&#45;&gt;node140408362823200</title>
<path fill="none" stroke="#444443" stroke-width="0.5" d="M111.2,-101C112.99,-96.52 116.52,-87.71 119.87,-79.31"/>
<ellipse fill="#444443" stroke="#444443" stroke-width="0.5" cx="110.59" cy="-102.51" rx="1.6" ry="1.6"/>
<polygon fill="#444443" stroke="#444443" stroke-width="0.5" points="121.32,-79.48 121.5,-75.25 118.72,-78.44 121.32,-79.48"/>
</g>
<!-- node140408362829184 -->
<g id="node3" class="node">
<title>node140408362829184</title>
<polygon fill="none" stroke="black" stroke-width="0.5" points="126,-19 0,-19 0,0 126,0 126,-19"/>
<polygon fill="#fefecd" stroke="transparent" points="1,-0.5 1,-17.5 32,-17.5 32,-0.5 1,-0.5"/>
<text text-anchor="start" x="4" y="-6.5" font-family="Helvetica,sans-Serif" font-size="10.00" fill="#444443">1160</text>
<polygon fill="#fefecd" stroke="transparent" points="32,-0.5 32,-17.5 63,-17.5 63,-0.5 32,-0.5"/>
<text text-anchor="start" x="35" y="-6.5" font-family="Helvetica,sans-Serif" font-size="10.00" fill="#444443">1200</text>
<polygon fill="#fefecd" stroke="transparent" points="63,-0.5 63,-17.5 94,-17.5 94,-0.5 63,-0.5"/>
<text text-anchor="start" x="66" y="-6.5" font-family="Helvetica,sans-Serif" font-size="10.00" fill="#444443">1280</text>
<polygon fill="#fefecd" stroke="transparent" points="94,-0.5 94,-17.5 125,-17.5 125,-0.5 94,-0.5"/>
<text text-anchor="start" x="97" y="-6.5" font-family="Helvetica,sans-Serif" font-size="10.00" fill="#444443">1450</text>
</g>
<!-- node140408362820464&#45;&gt;node140408362829184 -->
<g id="edge3" class="edge">
<title>node140408362820464:c&#45;&gt;node140408362829184</title>
<path fill="none" stroke="#444443" stroke-width="0.5" d="M71.19,-45.55C70.02,-40.55 67.8,-31.05 65.97,-23.2"/>
<ellipse fill="#444443" stroke="#444443" stroke-width="0.5" cx="71.64" cy="-47.44" rx="1.6" ry="1.6"/>
<polygon fill="#444443" stroke="#444443" stroke-width="0.5" points="67.27,-22.62 65,-19.04 64.54,-23.26 67.27,-22.62"/>
</g>
<!-- node140408362828896 -->
<g id="node5" class="node">
<title>node140408362828896</title>
<polygon fill="none" stroke="black" stroke-width="0.5" points="166.5,-19 133.5,-19 133.5,0 166.5,0 166.5,-19"/>
<polygon fill="#fefecd" stroke="transparent" points="135,-0.5 135,-17.5 166,-17.5 166,-0.5 135,-0.5"/>
<text text-anchor="start" x="138" y="-6.5" font-family="Helvetica,sans-Serif" font-size="10.00" fill="#444443">2000</text>
</g>
<!-- node140408362823200&#45;&gt;node140408362828896 -->
<g id="edge4" class="edge">
<title>node140408362823200:c&#45;&gt;node140408362828896</title>
<path fill="none" stroke="#444443" stroke-width="0.5" d="M145.45,-45.55C146.1,-40.55 147.33,-31.05 148.35,-23.2"/>
<ellipse fill="#444443" stroke="#444443" stroke-width="0.5" cx="145.21" cy="-47.41" rx="1.6" ry="1.6"/>
<polygon fill="#444443" stroke="#444443" stroke-width="0.5" points="149.76,-23.19 148.89,-19.04 146.99,-22.83 149.76,-23.19"/>
</g>
</g>
</svg>