<?xml version="1.0" encoding="UTF-8" standalone="no"?>
<!DOCTYPE svg PUBLIC "-//W3C//DTD SVG 1.1//EN"
 "http://www.w3.org/Graphics/SVG/1.1/DTD/svg11.dtd">
<!-- Generated by graphviz version 2.40.1 (20161225.0304)
 -->
<!-- Title: G Pages: 1 -->
<svg width="165pt" height="161pt"
 viewBox="0.00 0.00 164.50 161.00" xmlns="http://www.w3.org/2000/svg" xmlns:xlink="http://www.w3.org/1999/xlink">
<g id="graph0" class="graph" transform="scale(1 1) rotate(0) translate(4 157)">
<title>G</title>
<polygon fill="#ffffff" stroke="transparent" points="-4,4 -4,-157 160.5,-157 160.5,4 -4,4"/>
<!-- node112167430856 -->
<g id="node1" class="node">
<title>node112167430856</title>
<polygon fill="#fefecd" stroke="#444443" stroke-width=".5" points="120.5,-153 51.5,-153 51.5,-97 120.5,-97 120.5,-153"/>
<polygon fill="#fefecd" stroke="transparent" points="54,-137 54,-151 119,-151 119,-137 54,-137"/>
<polyline fill="none" stroke="#444443" points="54,-137 119,-137 "/>
<text text-anchor="start" x="55" y="-141.2" font-family="Times,serif" font-style="italic" font-size="11.00" fill="#444443">DecisionNode</text>
<polygon fill="#fefecd" stroke="transparent" points="54,-135 54,-137 119,-137 119,-135 54,-135"/>
<polygon fill="#fefecd" stroke="transparent" points="54,-121 54,-135 85,-135 85,-121 54,-121"/>
<polyline fill="none" stroke="#444443" points="85,-121 85,-135 "/>
<text text-anchor="start" x="61" y="-125.2" font-family="Helvetica,sans-Serif" font-size="11.00" fill="#444443">split </text>
<polygon fill="#fefecd" stroke="transparent" points="88,-121 88,-135 119,-135 119,-121 88,-121"/>
<text text-anchor="start" x="89" y="-125.2" font-family="Helvetica,sans-Serif" font-size="11.00" fill="#444443"> &#39;950&#39;</text>
<polyline fill="none" stroke="#444443" points="54,-118 119,-118 "/>
<polygon fill="#fefecd" stroke="transparent" points="54,-116 54,-118 119,-118 119,-116 54,-116"/>
<polygon fill="#fefecd" stroke="transparent" points="54,-107 54,-116 85,-116 85,-107 54,-107"/>
<polyline fill="none" stroke="#444443" points="85,-107 85,-116 "/>
<text text-anchor="start" x="55" y="-110.2" font-family="Helvetica,sans-Serif" font-size="6.00" fill="#444443">left</text>
<polygon fill="#fefecd" stroke="transparent" points="85,-107 85,-116 88,-116 88,-107 85,-107"/>
<polygon fill="#fefecd" stroke="transparent" points="88,-107 88,-116 119,-116 119,-107 88,-107"/>
<text text-anchor="start" x="106" y="-110.2" font-family="Helvetica,sans-Serif" font-size="6.00" fill="#444443">right</text>
<polygon fill="#fefecd" stroke="transparent" points="54,-104 54,-107 85,-107 85,-104 54,-104"/>
<polyline fill="none" stroke="#444443" points="85,-104 85,-107 "/>
<text text-anchor="start" x="69" y="-105.2" font-family="Helvetica,sans-Serif" font-size="1.00" fill="#444443"> </text>
<polygon fill="#fefecd" stroke="transparent" points="85,-104 85,-107 88,-107 88,-104 85,-104"/>
<polygon fill="#fefecd" stroke="transparent" points="88,-104 88,-107 119,-107 119,-104 88,-104"/>
<text text-anchor="start" x="103" y="-105.2" font-family="Helvetica,sans-Serif" font-size="1.00" fill="#444443"> </text>
<polygon fill="#fefecd" stroke="transparent" points="54,-99 54,-104 85,-104 85,-99 54,-99"/>
<polyline fill="none" stroke="#444443" points="85,-99 85,-104 "/>
<text text-anchor="start" x="69" y="-100.6" font-family="Helvetica,sans-Serif" font-size="3.00" fill="#444443"> </text>
<polygon fill="#fefecd" stroke="transparent" points="85,-99 85,-104 88,-104 88,-99 85,-99"/>
<polygon fill="#fefecd" stroke="transparent" points="88,-99 88,-104 119,-104 119,-99 88,-99"/>
<text text-anchor="start" x="103" y="-100.6" font-family="Helvetica,sans-Serif" font-size="3.00" fill="#444443"> </text>
</g>
<!-- node112167431808 -->
<g id="node2" class="node">
<title>node112167431808</title>
<polygon fill="#fefecd" stroke="#444443" stroke-width=".5" points="83.5,-75 34.5,-75 34.5,-41 83.5,-41 83.5,-75"/>
<polygon fill="#fefecd" stroke="transparent" points="37,-59 37,-73 82,-73 82,-59 37,-59"/>
<polyline fill="none" stroke="#444443" points="37,-59 82,-59 "/>
<text text-anchor="start" x="38" y="-63.2" font-family="Times,serif" font-style="italic" font-size="11.00" fill="#444443">LeafNode</text>
<polygon fill="#fefecd" stroke="transparent" points="37,-57 37,-59 82,-59 82,-57 37,-57"/>
<polygon fill="#fefecd" stroke="transparent" points="37,-43 37,-57 57,-57 57,-43 37,-43"/>
<polyline fill="none" stroke="#444443" points="57,-43 57,-57 "/>
<text text-anchor="start" x="47" y="-47.2" font-family="Helvetica,sans-Serif" font-size="11.00" fill="#444443">y </text>
<polygon fill="#fefecd" stroke="transparent" points="62,-43 62,-57 82,-57 82,-43 62,-43"/>
<text text-anchor="start" x="63" y="-47.2" font-family="Helvetica,sans-Serif" font-size="11.00" fill="#444443"> &#160;&#160;&#160;</text>
</g>
<!-- node112167430856&#45;&gt;node112167431808 -->
<g id="edge1" class="edge">
<title>node112167430856:c&#45;&gt;node112167431808</title>
<path fill="none" stroke="#444443" stroke-width=".5" d="M68.2657,-101.5487C67.2574,-96.8099 65.3622,-87.9022 63.5472,-79.3717"/>
<ellipse fill="#444443" stroke="#444443" stroke-width=".5" cx="68.667" cy="-103.435" rx="1.6" ry="1.6"/>
<polygon fill="#444443" stroke="#444443" stroke-width=".5" points="64.8687,-78.8552 62.6668,-75.2342 62.13,-79.438 64.8687,-78.8552"/>
</g>
<!-- node112167430744 -->
<g id="node4" class="node">
<title>node112167430744</title>
<polygon fill="#fefecd" stroke="#444443" stroke-width=".5" points="145.5,-75 96.5,-75 96.5,-41 145.5,-41 145.5,-75"/>
<polygon fill="#fefecd" stroke="transparent" points="99,-59 99,-73 144,-73 144,-59 99,-59"/>
<polyline fill="none" stroke="#444443" points="99,-59 144,-59 "/>
<text text-anchor="start" x="100" y="-63.2" font-family="Times,serif" font-style="italic" font-size="11.00" fill="#444443">LeafNode</text>
<polygon fill="#fefecd" stroke="transparent" points="99,-57 99,-59 144,-59 144,-57 99,-57"/>
<polygon fill="#fefecd" stroke="transparent" points="99,-43 99,-57 119,-57 119,-43 99,-43"/>
<polyline fill="none" stroke="#444443" points="119,-43 119,-57 "/>
<text text-anchor="start" x="109" y="-47.2" font-family="Helvetica,sans-Serif" font-size="11.00" fill="#444443">y </text>
<polygon fill="#fefecd" stroke="transparent" points="124,-43 124,-57 144,-57 144,-43 124,-43"/>
<text text-anchor="start" x="125" y="-47.2" font-family="Helvetica,sans-Serif" font-size="11.00" fill="#444443"> &#160;&#160;&#160;</text>
</g>
<!-- node112167430856&#45;&gt;node112167430744 -->
<g id="edge2" class="edge">
<title>node112167430856:c&#45;&gt;node112167430744</title>
<path fill="none" stroke="#444443" stroke-width=".5" d="M105.1212,-101.9003C106.7935,-97.2769 110.0833,-88.1814 113.2369,-79.4627"/>
<ellipse fill="#444443" stroke="#444443" stroke-width=".5" cx="104.5442" cy="-103.4954" rx="1.6" ry="1.6"/>
<polygon fill="#444443" stroke="#444443" stroke-width=".5" points="114.7223,-79.4719 114.7664,-75.2342 112.0892,-78.5195 114.7223,-79.4719"/>
</g>
<!-- node112167431192 -->
<g id="node3" class="node">
<title>node112167431192</title>
<polygon fill="none" stroke="#000000" stroke-width=".5" points="118,-19 0,-19 0,0 118,0 118,-19"/>
<polygon fill="#fefecd" stroke="transparent" points="1,-.5 1,-17.5 30,-17.5 30,-.5 1,-.5"/>
<text text-anchor="start" x="4" y="-6.5" font-family="Helvetica,sans-Serif" font-size="10.00" fill="#444443">1160</text>
<polygon fill="#fefecd" stroke="transparent" points="30,-.5 30,-17.5 59,-17.5 59,-.5 30,-.5"/>
<text text-anchor="start" x="33" y="-6.5" font-family="Helvetica,sans-Serif" font-size="10.00" fill="#444443">1200</text>
<polygon fill="#fefecd" stroke="transparent" points="59,-.5 59,-17.5 88,-17.5 88,-.5 59,-.5"/>
<text text-anchor="start" x="62" y="-6.5" font-family="Helvetica,sans-Serif" font-size="10.00" fill="#444443">1280</text>
<polygon fill="#fefecd" stroke="transparent" points="88,-.5 88,-17.5 117,-17.5 117,-.5 88,-.5"/>
<text text-anchor="start" x="91" y="-6.5" font-family="Helvetica,sans-Serif" font-size="10.00" fill="#444443">1450</text>
</g>
<!-- node112167431808&#45;&gt;node112167431192 -->
<g id="edge3" class="edge">
<title>node112167431808:c&#45;&gt;node112167431192</title>
<path fill="none" stroke="#444443" stroke-width=".5" d="M71.0015,-46.8893C69.3949,-41.8843 66.1414,-31.7482 63.4267,-23.2909"/>
<ellipse fill="#444443" stroke="#444443" stroke-width=".5" cx="71.511" cy="-48.4766" rx="1.6" ry="1.6"/>
<polygon fill="#444443" stroke="#444443" stroke-width=".5" points="64.7025,-22.6846 62.1469,-19.3039 62.0365,-23.5404 64.7025,-22.6846"/>
</g>
<!-- node112167431080 -->
<g id="node5" class="node">
<title>node112167431080</title>
<polygon fill="none" stroke="#000000" stroke-width=".5" points="156.5,-19 125.5,-19 125.5,0 156.5,0 156.5,-19"/>
<polygon fill="#fefecd" stroke="transparent" points="127,-.5 127,-17.5 156,-17.5 156,-.5 127,-.5"/>
<text text-anchor="start" x="130" y="-6.5" font-family="Helvetica,sans-Serif" font-size="10.00" fill="#444443">2000</text>
</g>
<!-- node112167430744&#45;&gt;node112167431080 -->
<g id="edge4" class="edge">
<title>node112167430744:c&#45;&gt;node112167431080</title>
<path fill="none" stroke="#444443" stroke-width=".5" d="M134.6021,-46.5163C135.4744,-41.4694 137.14,-31.8327 138.5531,-23.6572"/>
<ellipse fill="#444443" stroke="#444443" stroke-width=".5" cx="134.2725" cy="-48.4234" rx="1.6" ry="1.6"/>
<polygon fill="#444443" stroke="#444443" stroke-width=".5" points="140.0037,-23.4839 139.3055,-19.3039 137.2446,-23.007 140.0037,-23.4839"/>
</g>
</g>
</svg>