<svg xmlns="http://www.w3.org/2000/svg" xmlns:dc="http://purl.org/dc/elements/1.1/" xmlns:ns2="http://creativecommons.org/ns#" xmlns:rdf="http://www.w3.org/1999/02/22-rdf-syntax-ns#" xmlns:xlink="http://www.w3.org/1999/xlink" width="315.0" height="443.0" viewBox="0.0 0.0 315.0 443.0">
<g id="graph0" class="graph" transform="scale(1.0 1.0) rotate(0) translate(4 439)">
<title>G</title>
<polygon fill="white" stroke="transparent" points="-4,4 -4,-439 311,-439 311,4 -4,4" />
<g id="clust1" class="cluster">
<title>cluster_legend</title>
</g>
<g id="clust2" class="cluster">
<title>cluster_instance</title>
</g>

<g id="node1" class="node">
<title>node5</title>
<polygon fill="none" stroke="#d67c03" stroke-width="0.5" stroke-dasharray="5,2" points="230.5,-242 69.5,-242 69.5,-180 230.5,-180 230.5,-242" />
<svg width="153px" height="54px" viewBox="0 0 204.48625 73.065915" version="1.1" preserveAspectRatio="xMinYMin meet" x="74" y="-238">
 <metadata>
  <rdf:RDF>
   <ns2:Work>
    <dc:type rdf:resource="http://purl.org/dc/dcmitype/StillImage" />
    <dc:date>2023-09-20T13:51:40.786732</dc:date>
    <dc:format>image/svg+xml</dc:format>
    <dc:creator>
     <ns2:Agent>
      <dc:title>Matplotlib v3.6.2, https://matplotlib.org/</dc:title>
     </ns2:Agent>
    </dc:creator>
   </ns2:Work>
  </rdf:RDF>
 </metadata>
 <defs>
  <style type="text/css">*{stroke-linejoin: round; stroke-linecap: butt}</style>
 </defs>
 <g id="figure_1">
  <g id="patch_1">
   <path d="M 0 73.065915  L 204.48625 73.065915  L 204.48625 0  L 0 0  z " style="fill: #ffffff" />
  </g>
  <g id="axes_1">
   <g id="patch_2">
    <path d="M 20.34625 39.27529  L 204.48625 39.27529  L 204.48625 1.042517  L 20.34625 1.042517  z " style="fill: #ffffff" />
   </g>
   <g id="patch_3">
    <path d="M 36.358424 39.27529  L 44.364511 39.27529  L 44.364511 23.418379  L 36.358424 23.418379  z " clip-path="url(#p8dd2fb6bbd)" style="fill: #fefebb; stroke: #444443; stroke-width: 0.5; stroke-linejoin: miter" />
   </g>
   <g id="patch_4">
    <path d="M 44.364511 39.27529  L 52.370598 39.27529  L 52.370598 34.870592  L 44.364511 34.870592  z " clip-path="url(#p8dd2fb6bbd)" style="fill: #fefebb; stroke: #444443; stroke-width: 0.5; stroke-linejoin: miter" />
   </g>
   <g id="patch_5">
    <path d="M 52.370598 39.27529  L 60.376685 39.27529  L 60.376685 38.39435  L 52.370598 38.39435  z " clip-path="url(#p8dd2fb6bbd)" style="fill: #fefebb; stroke: #444443; stroke-width: 0.5; stroke-linejoin: miter" />
   </g>
   <g id="patch_6">
    <path d="M 60.376685 39.27529  L 68.382772 39.27529  L 68.382772 39.27529  L 60.376685 39.27529  z " clip-path="url(#p8dd2fb6bbd)" style="fill: #fefebb; stroke: #444443; stroke-width: 0.5; stroke-linejoin: miter" />
   </g>
   <g id="patch_7">
    <path d="M 68.382772 39.27529  L 76.388859 39.27529  L 76.388859 39.27529  L 68.382772 39.27529  z " clip-path="url(#p8dd2fb6bbd)" style="fill: #fefebb; stroke: #444443; stroke-width: 0.5; stroke-linejoin: miter" />
   </g>
   <g id="patch_8">
    <path d="M 76.388859 39.27529  L 84.394946 39.27529  L 84.394946 39.27529  L 76.388859 39.27529  z " clip-path="url(#p8dd2fb6bbd)" style="fill: #fefebb; stroke: #444443; stroke-width: 0.5; stroke-linejoin: miter" />
   </g>
   <g id="patch_9">
    <path d="M 84.394946 39.27529  L 92.401033 39.27529  L 92.401033 39.27529  L 84.394946 39.27529  z " clip-path="url(#p8dd2fb6bbd)" style="fill: #fefebb; stroke: #444443; stroke-width: 0.5; stroke-linejoin: miter" />
   </g>
   <g id="patch_10">
    <path d="M 92.401033 39.27529  L 100.40712 39.27529  L 100.40712 39.27529  L 92.401033 39.27529  z " clip-path="url(#p8dd2fb6bbd)" style="fill: #fefebb; stroke: #444443; stroke-width: 0.5; stroke-linejoin: miter" />
   </g>
   <g id="patch_11">
    <path d="M 100.40712 39.27529  L 108.413207 39.27529  L 108.413207 39.27529  L 100.40712 39.27529  z " clip-path="url(#p8dd2fb6bbd)" style="fill: #fefebb; stroke: #444443; stroke-width: 0.5; stroke-linejoin: miter" />
   </g>
   <g id="patch_12">
    <path d="M 108.413207 39.27529  L 116.419293 39.27529  L 116.419293 39.27529  L 108.413207 39.27529  z " clip-path="url(#p8dd2fb6bbd)" style="fill: #fefebb; stroke: #444443; stroke-width: 0.5; stroke-linejoin: miter" />
   </g>
   <g id="patch_13">
    <path d="M 116.419293 39.27529  L 124.42538 39.27529  L 124.42538 39.27529  L 116.419293 39.27529  z " clip-path="url(#p8dd2fb6bbd)" style="fill: #fefebb; stroke: #444443; stroke-width: 0.5; stroke-linejoin: miter" />
   </g>
   <g id="patch_14">
    <path d="M 124.42538 39.27529  L 132.431467 39.27529  L 132.431467 39.27529  L 124.42538 39.27529  z " clip-path="url(#p8dd2fb6bbd)" style="fill: #fefebb; stroke: #444443; stroke-width: 0.5; stroke-linejoin: miter" />
   </g>
   <g id="patch_15">
    <path d="M 132.431467 39.27529  L 140.437554 39.27529  L 140.437554 39.27529  L 132.431467 39.27529  z " clip-path="url(#p8dd2fb6bbd)" style="fill: #fefebb; stroke: #444443; stroke-width: 0.5; stroke-linejoin: miter" />
   </g>
   <g id="patch_16">
    <path d="M 140.437554 39.27529  L 148.443641 39.27529  L 148.443641 39.27529  L 140.437554 39.27529  z " clip-path="url(#p8dd2fb6bbd)" style="fill: #fefebb; stroke: #444443; stroke-width: 0.5; stroke-linejoin: miter" />
   </g>
   <g id="patch_17">
    <path d="M 148.443641 39.27529  L 156.449728 39.27529  L 156.449728 39.27529  L 148.443641 39.27529  z " clip-path="url(#p8dd2fb6bbd)" style="fill: #fefebb; stroke: #444443; stroke-width: 0.5; stroke-linejoin: miter" />
   </g>
   <g id="patch_18">
    <path d="M 156.449728 39.27529  L 164.455815 39.27529  L 164.455815 39.27529  L 156.449728 39.27529  z " clip-path="url(#p8dd2fb6bbd)" style="fill: #fefebb; stroke: #444443; stroke-width: 0.5; stroke-linejoin: miter" />
   </g>
   <g id="patch_19">
    <path d="M 164.455815 39.27529  L 172.461902 39.27529  L 172.461902 39.27529  L 164.455815 39.27529  z " clip-path="url(#p8dd2fb6bbd)" style="fill: #fefebb; stroke: #444443; stroke-width: 0.5; stroke-linejoin: miter" />
   </g>
   <g id="patch_20">
    <path d="M 172.461902 39.27529  L 180.467989 39.27529  L 180.467989 39.27529  L 172.461902 39.27529  z " clip-path="url(#p8dd2fb6bbd)" style="fill: #fefebb; stroke: #444443; stroke-width: 0.5; stroke-linejoin: miter" />
   </g>
   <g id="patch_21">
    <path d="M 180.467989 39.27529  L 188.474076 39.27529  L 188.474076 39.27529  L 180.467989 39.27529  z " clip-path="url(#p8dd2fb6bbd)" style="fill: #fefebb; stroke: #444443; stroke-width: 0.5; stroke-linejoin: miter" />
   </g>
   <g id="patch_22">
    <path d="M 36.358424 23.418379  L 44.364511 23.418379  L 44.364511 2.863125  L 36.358424 2.863125  z " clip-path="url(#p8dd2fb6bbd)" style="fill: #a1dab4; stroke: #444443; stroke-width: 0.5; stroke-linejoin: miter" />
   </g>
   <g id="patch_23">
    <path d="M 44.364511 34.870592  L 52.370598 34.870592  L 52.370598 34.283299  L 44.364511 34.283299  z " clip-path="url(#p8dd2fb6bbd)" style="fill: #a1dab4; stroke: #444443; stroke-width: 0.5; stroke-linejoin: miter" />
   </g>
   <g id="patch_24">
    <path d="M 52.370598 38.39435  L 60.376685 38.39435  L 60.376685 38.39435  L 52.370598 38.39435  z " clip-path="url(#p8dd2fb6bbd)" style="fill: #a1dab4; stroke: #444443; stroke-width: 0.5; stroke-linejoin: miter" />
   </g>
   <g id="patch_25">
    <path d="M 60.376685 39.27529  L 68.382772 39.27529  L 68.382772 39.27529  L 60.376685 39.27529  z " clip-path="url(#p8dd2fb6bbd)" style="fill: #a1dab4; stroke: #444443; stroke-width: 0.5; stroke-linejoin: miter" />
   </g>
   <g id="patch_26">
    <path d="M 68.382772 39.27529  L 76.388859 39.27529  L 76.388859 39.27529  L 68.382772 39.27529  z " clip-path="url(#p8dd2fb6bbd)" style="fill: #a1dab4; stroke: #444443; stroke-width: 0.5; stroke-linejoin: miter" />
   </g>
   <g id="patch_27">
    <path d="M 76.388859 39.27529  L 84.394946 39.27529  L 84.394946 39.27529  L 76.388859 39.27529  z " clip-path="url(#p8dd2fb6bbd)" style="fill: #a1dab4; stroke: #444443; stroke-width: 0.5; stroke-linejoin: miter" />
   </g>
   <g id="patch_28">
    <path d="M 84.394946 39.27529  L 92.401033 39.27529  L 92.401033 39.27529  L 84.394946 39.27529  z " clip-path="url(#p8dd2fb6bbd)" style="fill: #a1dab4; stroke: #444443; stroke-width: 0.5; stroke-linejoin: miter" />
   </g>
   <g id="patch_29">
    <path d="M 92.401033 39.27529  L 100.40712 39.27529  L 100.40712 39.27529  L 92.401033 39.27529  z " clip-path="url(#p8dd2fb6bbd)" style="fill: #a1dab4; stroke: #444443; stroke-width: 0.5; stroke-linejoin: miter" />
   </g>
   <g id="patch_30">
    <path d="M 100.40712 39.27529  L 108.413207 39.27529  L 108.413207 39.27529  L 100.40712 39.27529  z " clip-path="url(#p8dd2fb6bbd)" style="fill: #a1dab4; stroke: #444443; stroke-width: 0.5; stroke-linejoin: miter" />
   </g>
   <g id="patch_31">
    <path d="M 108.413207 39.27529  L 116.419293 39.27529  L 116.419293 39.27529  L 108.413207 39.27529  z " clip-path="url(#p8dd2fb6bbd)" style="fill: #a1dab4; stroke: #444443; stroke-width: 0.5; stroke-linejoin: miter" />
   </g>
   <g id="patch_32">
    <path d="M 116.419293 39.27529  L 124.42538 39.27529  L 124.42538 39.27529  L 116.419293 39.27529  z " clip-path="url(#p8dd2fb6bbd)" style="fill: #a1dab4; stroke: #444443; stroke-width: 0.5; stroke-linejoin: miter" />
   </g>
   <g id="patch_33">
    <path d="M 124.42538 39.27529  L 132.431467 39.27529  L 132.431467 39.27529  L 124.42538 39.27529  z " clip-path="url(#p8dd2fb6bbd)" style="fill: #a1dab4; stroke: #444443; stroke-width: 0.5; stroke-linejoin: miter" />
   </g>
   <g id="patch_34">
    <path d="M 132.431467 39.27529  L 140.437554 39.27529  L 140.437554 39.27529  L 132.431467 39.27529  z " clip-path="url(#p8dd2fb6bbd)" style="fill: #a1dab4; stroke: #444443; stroke-width: 0.5; stroke-linejoin: miter" />
   </g>
   <g id="patch_35">
    <path d="M 140.437554 39.27529  L 148.443641 39.27529  L 148.443641 39.27529  L 140.437554 39.27529  z " clip-path="url(#p8dd2fb6bbd)" style="fill: #a1dab4; stroke: #444443; stroke-width: 0.5; stroke-linejoin: miter" />
   </g>
   <g id="patch_36">
    <path d="M 148.443641 39.27529  L 156.449728 39.27529  L 156.449728 39.27529  L 148.443641 39.27529  z " clip-path="url(#p8dd2fb6bbd)" style="fill: #a1dab4; stroke: #444443; stroke-width: 0.5; stroke-linejoin: miter" />
   </g>
   <g id="patch_37">
    <path d="M 156.449728 39.27529  L 164.455815 39.27529  L 164.455815 39.27529  L 156.449728 39.27529  z " clip-path="url(#p8dd2fb6bbd)" style="fill: #a1dab4; stroke: #444443; stroke-width: 0.5; stroke-linejoin: miter" />
   </g>
   <g id="patch_38">
    <path d="M 164.455815 39.27529  L 172.461902 39.27529  L 172.461902 39.27529  L 164.455815 39.27529  z " clip-path="url(#p8dd2fb6bbd)" style="fill: #a1dab4; stroke: #444443; stroke-width: 0.5; stroke-linejoin: miter" />
   </g>
   <g id="patch_39">
    <path d="M 172.461902 39.27529  L 180.467989 39.27529  L 180.467989 39.27529  L 172.461902 39.27529  z " clip-path="url(#p8dd2fb6bbd)" style="fill: #a1dab4; stroke: #444443; stroke-width: 0.5; stroke-linejoin: miter" />
   </g>
   <g id="patch_40">
    <path d="M 180.467989 39.27529  L 188.474076 39.27529  L 188.474076 39.27529  L 180.467989 39.27529  z " clip-path="url(#p8dd2fb6bbd)" style="fill: #a1dab4; stroke: #444443; stroke-width: 0.5; stroke-linejoin: miter" />
   </g>
   <g id="patch_41">
    <path d="M 43.291272 40.10689  L 39.976752 48.42289  L 46.605792 48.42289  z " style="fill: #444443" />
   </g>
   <g id="patch_42">
    <path d="M 41.316821 40.10689  L 38.002301 48.42289  L 44.631341 48.42289  z " style="fill: #d67c03" />
   </g>
   <g id="matplotlib.axis_1">
    <g id="xtick_1">
     <g id="line2d_1">
      <defs>
       <path id="mbcbd88dea0" d="M 0 0  L 0 3.5  " style="stroke: #000000; stroke-width: 0.3" />
      </defs>
      <g>
       <use xlink:href="#mbcbd88dea0" x="36.358424" y="39.27529" style="stroke: #000000; stroke-width: 0.3" />
      </g>
     </g>
     <g id="text_1">
      
      <g style="fill: #444443" transform="translate(30.798424 56.50154) scale(0.08 -0.08)">
       <defs>
        <path id="ArialMT-30" d="M 266 2259  Q 266 3072 433 3567  Q 600 4063 929 4331  Q 1259 4600 1759 4600  Q 2128 4600 2406 4451  Q 2684 4303 2865 4023  Q 3047 3744 3150 3342  Q 3253 2941 3253 2259  Q 3253 1453 3087 958  Q 2922 463 2592 192  Q 2263 -78 1759 -78  Q 1097 -78 719 397  Q 266 969 266 2259  z M 844 2259  Q 844 1131 1108 757  Q 1372 384 1759 384  Q 2147 384 2411 759  Q 2675 1134 2675 2259  Q 2675 3391 2411 3762  Q 2147 4134 1753 4134  Q 1366 4134 1134 3806  Q 844 3388 844 2259  z " transform="scale(0.015625)" />
        <path id="ArialMT-2e" d="M 581 0  L 581 641  L 1222 641  L 1222 0  L 581 0  z " transform="scale(0.015625)" />
       </defs>
       <use xlink:href="#ArialMT-30" />
       <use xlink:href="#ArialMT-2e" x="55.615234" />
       <use xlink:href="#ArialMT-30" x="83.398438" />
      </g>
     </g>
    </g>
    <g id="xtick_2">
     <g id="line2d_2">
      <g>
       <use xlink:href="#mbcbd88dea0" x="188.474076" y="39.27529" style="stroke: #000000; stroke-width: 0.3" />
      </g>
     </g>
     <g id="text_2">
      
      <g style="fill: #444443" transform="translate(178.465326 56.50154) scale(0.08 -0.08)">
       <defs>
        <path id="ArialMT-35" d="M 266 1200  L 856 1250  Q 922 819 1161 601  Q 1400 384 1738 384  Q 2144 384 2425 690  Q 2706 997 2706 1503  Q 2706 1984 2436 2262  Q 2166 2541 1728 2541  Q 1456 2541 1237 2417  Q 1019 2294 894 2097  L 366 2166  L 809 4519  L 3088 4519  L 3088 3981  L 1259 3981  L 1013 2750  Q 1425 3038 1878 3038  Q 2478 3038 2890 2622  Q 3303 2206 3303 1553  Q 3303 931 2941 478  Q 2500 -78 1738 -78  Q 1113 -78 717 272  Q 322 622 266 1200  z " transform="scale(0.015625)" />
        <path id="ArialMT-31" d="M 2384 0  L 1822 0  L 1822 3584  Q 1619 3391 1289 3197  Q 959 3003 697 2906  L 697 3450  Q 1169 3672 1522 3987  Q 1875 4303 2022 4600  L 2384 4600  L 2384 0  z " transform="scale(0.015625)" />
        <path id="ArialMT-32" d="M 3222 541  L 3222 0  L 194 0  Q 188 203 259 391  Q 375 700 629 1000  Q 884 1300 1366 1694  Q 2113 2306 2375 2664  Q 2638 3022 2638 3341  Q 2638 3675 2398 3904  Q 2159 4134 1775 4134  Q 1369 4134 1125 3890  Q 881 3647 878 3216  L 300 3275  Q 359 3922 746 4261  Q 1134 4600 1788 4600  Q 2447 4600 2831 4234  Q 3216 3869 3216 3328  Q 3216 3053 3103 2787  Q 2991 2522 2730 2228  Q 2469 1934 1863 1422  Q 1356 997 1212 845  Q 1069 694 975 541  L 3222 541  z " transform="scale(0.015625)" />
        <path id="ArialMT-33" d="M 269 1209  L 831 1284  Q 928 806 1161 595  Q 1394 384 1728 384  Q 2125 384 2398 659  Q 2672 934 2672 1341  Q 2672 1728 2419 1979  Q 2166 2231 1775 2231  Q 1616 2231 1378 2169  L 1441 2663  Q 1497 2656 1531 2656  Q 1891 2656 2178 2843  Q 2466 3031 2466 3422  Q 2466 3731 2256 3934  Q 2047 4138 1716 4138  Q 1388 4138 1169 3931  Q 950 3725 888 3313  L 325 3413  Q 428 3978 793 4289  Q 1159 4600 1703 4600  Q 2078 4600 2393 4439  Q 2709 4278 2876 4000  Q 3044 3722 3044 3409  Q 3044 3113 2884 2869  Q 2725 2625 2413 2481  Q 2819 2388 3044 2092  Q 3269 1797 3269 1353  Q 3269 753 2831 336  Q 2394 -81 1725 -81  Q 1122 -81 723 278  Q 325 638 269 1209  z " transform="scale(0.015625)" />
       </defs>
       <use xlink:href="#ArialMT-35" />
       <use xlink:href="#ArialMT-31" x="55.615234" />
       <use xlink:href="#ArialMT-32" x="111.230469" />
       <use xlink:href="#ArialMT-2e" x="166.845703" />
       <use xlink:href="#ArialMT-33" x="194.628906" />
      </g>
     </g>
    </g>
    <g id="text_3">
     
     <g style="fill: #444443" transform="translate(100.080625 70.680915) scale(0.12 -0.12)">
      <defs>
       <path id="ArialMT-46" d="M 525 0  L 525 4581  L 3616 4581  L 3616 4041  L 1131 4041  L 1131 2622  L 3281 2622  L 3281 2081  L 1131 2081  L 1131 0  L 525 0  z " transform="scale(0.015625)" />
       <path id="ArialMT-61" d="M 2588 409  Q 2275 144 1986 34  Q 1697 -75 1366 -75  Q 819 -75 525 192  Q 231 459 231 875  Q 231 1119 342 1320  Q 453 1522 633 1644  Q 813 1766 1038 1828  Q 1203 1872 1538 1913  Q 2219 1994 2541 2106  Q 2544 2222 2544 2253  Q 2544 2597 2384 2738  Q 2169 2928 1744 2928  Q 1347 2928 1158 2789  Q 969 2650 878 2297  L 328 2372  Q 403 2725 575 2942  Q 747 3159 1072 3276  Q 1397 3394 1825 3394  Q 2250 3394 2515 3294  Q 2781 3194 2906 3042  Q 3031 2891 3081 2659  Q 3109 2516 3109 2141  L 3109 1391  Q 3109 606 3145 398  Q 3181 191 3288 0  L 2700 0  Q 2613 175 2588 409  z M 2541 1666  Q 2234 1541 1622 1453  Q 1275 1403 1131 1340  Q 988 1278 909 1158  Q 831 1038 831 891  Q 831 666 1001 516  Q 1172 366 1500 366  Q 1825 366 2078 508  Q 2331 650 2450 897  Q 2541 1088 2541 1459  L 2541 1666  z " transform="scale(0.015625)" />
       <path id="ArialMT-72" d="M 416 0  L 416 3319  L 922 3319  L 922 2816  Q 1116 3169 1280 3281  Q 1444 3394 1641 3394  Q 1925 3394 2219 3213  L 2025 2691  Q 1819 2813 1613 2813  Q 1428 2813 1281 2702  Q 1134 2591 1072 2394  Q 978 2094 978 1738  L 978 0  L 416 0  z " transform="scale(0.015625)" />
       <path id="ArialMT-65" d="M 2694 1069  L 3275 997  Q 3138 488 2766 206  Q 2394 -75 1816 -75  Q 1088 -75 661 373  Q 234 822 234 1631  Q 234 2469 665 2931  Q 1097 3394 1784 3394  Q 2450 3394 2872 2941  Q 3294 2488 3294 1666  Q 3294 1616 3291 1516  L 816 1516  Q 847 969 1125 678  Q 1403 388 1819 388  Q 2128 388 2347 550  Q 2566 713 2694 1069  z M 847 1978  L 2700 1978  Q 2663 2397 2488 2606  Q 2219 2931 1791 2931  Q 1403 2931 1139 2672  Q 875 2413 847 1978  z " transform="scale(0.015625)" />
      </defs>
      <use xlink:href="#ArialMT-46" />
      <use xlink:href="#ArialMT-61" x="61.083984" />
      <use xlink:href="#ArialMT-72" x="116.699219" />
      <use xlink:href="#ArialMT-65" x="150" />
     </g>
    </g>
   </g>
   <g id="matplotlib.axis_2">
    <g id="ytick_1">
     <g id="line2d_3">
      <defs>
       <path id="m9092579fc6" d="M 0 0  L -3.5 0  " style="stroke: #000000; stroke-width: 0.3" />
      </defs>
      <g>
       <use xlink:href="#m9092579fc6" x="20.34625" y="39.27529" style="stroke: #000000; stroke-width: 0.3" />
      </g>
     </g>
     <g id="text_4">
      
      <g style="fill: #444443" transform="translate(8.8975 42.138415) scale(0.08 -0.08)">
       <use xlink:href="#ArialMT-30" />
      </g>
     </g>
    </g>
    <g id="ytick_2">
     <g id="line2d_4">
      <g>
       <use xlink:href="#m9092579fc6" x="20.34625" y="2.863125" style="stroke: #000000; stroke-width: 0.3" />
      </g>
     </g>
     <g id="text_5">
      
      <g style="fill: #444443" transform="translate(-0 5.72625) scale(0.08 -0.08)">
       <defs>
        <path id="ArialMT-34" d="M 2069 0  L 2069 1097  L 81 1097  L 81 1613  L 2172 4581  L 2631 4581  L 2631 1613  L 3250 1613  L 3250 1097  L 2631 1097  L 2631 0  L 2069 0  z M 2069 1613  L 2069 3678  L 634 1613  L 2069 1613  z " transform="scale(0.015625)" />
       </defs>
       <use xlink:href="#ArialMT-31" />
       <use xlink:href="#ArialMT-32" x="55.615234" />
       <use xlink:href="#ArialMT-34" x="111.230469" />
      </g>
     </g>
    </g>
   </g>
   <g id="patch_43">
    <path d="M 20.34625 39.27529  L 20.34625 1.042517  " style="fill: none; stroke: #444443; stroke-width: 0.3; stroke-linejoin: miter; stroke-linecap: square" />
   </g>
   <g id="patch_44">
    <path d="M 20.34625 39.27529  L 204.48625 39.27529  " style="fill: none; stroke: #444443; stroke-width: 0.3; stroke-linejoin: miter; stroke-linecap: square" />
   </g>
  </g>
 </g>
 <defs>
  <clipPath id="p8dd2fb6bbd">
   <rect x="20.34625" y="1.042517" width="184.14" height="38.232773" />
  </clipPath>
 </defs>
</svg></g>

<g id="node4" class="node">
<title>leaf6</title>
<polygon fill="none" stroke="#d67c03" stroke-width="0.5" stroke-dasharray="5,2" points="184,-163 116,-163 116,-80 184,-80 184,-163" />
<svg width="60px" height="75px" viewBox="0 0 80.079985 101.032831" version="1.1" preserveAspectRatio="xMinYMin meet" x="120" y="-158.5">
 <metadata>
  <rdf:RDF>
   <ns2:Work>
    <dc:type rdf:resource="http://purl.org/dc/dcmitype/StillImage" />
    <dc:date>2023-09-20T13:51:40.946374</dc:date>
    <dc:format>image/svg+xml</dc:format>
    <dc:creator>
     <ns2:Agent>
      <dc:title>Matplotlib v3.6.2, https://matplotlib.org/</dc:title>
     </ns2:Agent>
    </dc:creator>
   </ns2:Work>
  </rdf:RDF>
 </metadata>
 <defs>
  <style type="text/css">*{stroke-linejoin: round; stroke-linecap: butt}</style>
 </defs>
 <g id="figure_1">
  <g id="patch_1">
   <path d="M 0 101.032831  L 80.079985 101.032831  L 80.079985 0  L 0 0  z " style="fill: #ffffff" />
  </g>
  <g id="axes_1">
   <g id="patch_2">
    <path d="M 80.079985 40.039662  C 80.079985 31.364977 77.260923 22.920856 72.049673 15.985941  C 66.838423 9.051027 59.512004 3.993965 51.179811 1.580517  C 42.847619 -0.832932 33.952575 -0.474474 25.841604 2.601612  C 17.730633 5.677698 10.834895 11.307893 6.198573 18.639651  L 40.039985 40.039662  L 80.079985 40.039662  z " style="fill: #fefebb; stroke: #444443; stroke-width: 0.5; stroke-linejoin: miter" />
   </g>
   <g id="patch_3">
    <path d="M 6.198573 18.639651  C 2.879832 23.88782 0.82698 29.836761 0.202794 36.014763  C -0.421393 42.192765 0.400032 48.432104 2.601935 54.238044  C 4.803839 60.043984 8.326441 65.258902 12.890425 69.46929  C 17.454409 73.679678 22.935869 76.771231 28.900162 78.498808  C 34.864455 80.226386 41.149659 80.543088 47.257402 79.423802  C 53.365144 78.304516 59.129607 75.779629 64.09371 72.049347  C 69.057812 68.319064 73.086785 63.484659 75.861159 57.929466  C 78.635532 52.374273 80.079986 46.249108 80.079985 40.039654  L 40.039985 40.039662  L 6.198573 18.639651  z " style="fill: #a1dab4; stroke: #444443; stroke-width: 0.5; stroke-linejoin: miter" />
   </g>
   <g id="text_1">
    
    <g style="fill: #444443" transform="translate(27.733891 89.724893) scale(0.09 -0.09)">
     <defs>
      <path id="ArialMT-6e" d="M 422 0  L 422 3319  L 928 3319  L 928 2847  Q 1294 3394 1984 3394  Q 2284 3394 2536 3286  Q 2788 3178 2913 3003  Q 3038 2828 3088 2588  Q 3119 2431 3119 2041  L 3119 0  L 2556 0  L 2556 2019  Q 2556 2363 2490 2533  Q 2425 2703 2258 2804  Q 2091 2906 1866 2906  Q 1506 2906 1245 2678  Q 984 2450 984 1813  L 984 0  L 422 0  z " transform="scale(0.015625)" />
      <path id="ArialMT-3d" d="M 3381 2694  L 356 2694  L 356 3219  L 3381 3219  L 3381 2694  z M 3381 1303  L 356 1303  L 356 1828  L 3381 1828  L 3381 1303  z " transform="scale(0.015625)" />
      <path id="ArialMT-31" d="M 2384 0  L 1822 0  L 1822 3584  Q 1619 3391 1289 3197  Q 959 3003 697 2906  L 697 3450  Q 1169 3672 1522 3987  Q 1875 4303 2022 4600  L 2384 4600  L 2384 0  z " transform="scale(0.015625)" />
      <path id="ArialMT-37" d="M 303 3981  L 303 4522  L 3269 4522  L 3269 4084  Q 2831 3619 2401 2847  Q 1972 2075 1738 1259  Q 1569 684 1522 0  L 944 0  Q 953 541 1156 1306  Q 1359 2072 1739 2783  Q 2119 3494 2547 3981  L 303 3981  z " transform="scale(0.015625)" />
     </defs>
     <use xlink:href="#ArialMT-6e" />
     <use xlink:href="#ArialMT-3d" x="55.615234" />
     <use xlink:href="#ArialMT-31" x="114.013672" />
     <use xlink:href="#ArialMT-31" x="162.253906" />
     <use xlink:href="#ArialMT-37" x="217.869141" />
    </g>
    
    <g style="fill: #444443" transform="translate(25.786938 99.244081) scale(0.09 -0.09)">
     <defs>
      <path id="ArialMT-73" d="M 197 991  L 753 1078  Q 800 744 1014 566  Q 1228 388 1613 388  Q 2000 388 2187 545  Q 2375 703 2375 916  Q 2375 1106 2209 1216  Q 2094 1291 1634 1406  Q 1016 1563 777 1677  Q 538 1791 414 1992  Q 291 2194 291 2438  Q 291 2659 392 2848  Q 494 3038 669 3163  Q 800 3259 1026 3326  Q 1253 3394 1513 3394  Q 1903 3394 2198 3281  Q 2494 3169 2634 2976  Q 2775 2784 2828 2463  L 2278 2388  Q 2241 2644 2061 2787  Q 1881 2931 1553 2931  Q 1166 2931 1000 2803  Q 834 2675 834 2503  Q 834 2394 903 2306  Q 972 2216 1119 2156  Q 1203 2125 1616 2013  Q 2213 1853 2448 1751  Q 2684 1650 2818 1456  Q 2953 1263 2953 975  Q 2953 694 2789 445  Q 2625 197 2315 61  Q 2006 -75 1616 -75  Q 969 -75 630 194  Q 291 463 197 991  z " transform="scale(0.015625)" />
      <path id="ArialMT-75" d="M 2597 0  L 2597 488  Q 2209 -75 1544 -75  Q 1250 -75 995 37  Q 741 150 617 320  Q 494 491 444 738  Q 409 903 409 1263  L 409 3319  L 972 3319  L 972 1478  Q 972 1038 1006 884  Q 1059 663 1231 536  Q 1403 409 1656 409  Q 1909 409 2131 539  Q 2353 669 2445 892  Q 2538 1116 2538 1541  L 2538 3319  L 3100 3319  L 3100 0  L 2597 0  z " transform="scale(0.015625)" />
      <path id="ArialMT-72" d="M 416 0  L 416 3319  L 922 3319  L 922 2816  Q 1116 3169 1280 3281  Q 1444 3394 1641 3394  Q 1925 3394 2219 3213  L 2025 2691  Q 1819 2813 1613 2813  Q 1428 2813 1281 2702  Q 1134 2591 1072 2394  Q 978 2094 978 1738  L 978 0  L 416 0  z " transform="scale(0.015625)" />
      <path id="ArialMT-76" d="M 1344 0  L 81 3319  L 675 3319  L 1388 1331  Q 1503 1009 1600 663  Q 1675 925 1809 1294  L 2547 3319  L 3125 3319  L 1869 0  L 1344 0  z " transform="scale(0.015625)" />
      <path id="ArialMT-69" d="M 425 3934  L 425 4581  L 988 4581  L 988 3934  L 425 3934  z M 425 0  L 425 3319  L 988 3319  L 988 0  L 425 0  z " transform="scale(0.015625)" />
      <path id="ArialMT-65" d="M 2694 1069  L 3275 997  Q 3138 488 2766 206  Q 2394 -75 1816 -75  Q 1088 -75 661 373  Q 234 822 234 1631  Q 234 2469 665 2931  Q 1097 3394 1784 3394  Q 2450 3394 2872 2941  Q 3294 2488 3294 1666  Q 3294 1616 3291 1516  L 816 1516  Q 847 969 1125 678  Q 1403 388 1819 388  Q 2128 388 2347 550  Q 2566 713 2694 1069  z M 847 1978  L 2700 1978  Q 2663 2397 2488 2606  Q 2219 2931 1791 2931  Q 1403 2931 1139 2672  Q 875 2413 847 1978  z " transform="scale(0.015625)" />
     </defs>
     <use xlink:href="#ArialMT-73" />
     <use xlink:href="#ArialMT-75" x="50" />
     <use xlink:href="#ArialMT-72" x="105.615234" />
     <use xlink:href="#ArialMT-76" x="138.916016" />
     <use xlink:href="#ArialMT-69" x="188.916016" />
     <use xlink:href="#ArialMT-76" x="211.132812" />
     <use xlink:href="#ArialMT-65" x="261.132812" />
    </g>
   </g>
  </g>
 </g>
</svg></g>

<g id="edge1" class="edge">
<title>node5-&gt;leaf6</title>
<path fill="none" stroke="#d67c03" stroke-width="1.2" d="M150,-179.89C150,-175.81 150,-171.56 150,-167.29" />
<polygon fill="#d67c03" stroke="#d67c03" stroke-width="1.2" points="151.4,-167.02 150,-163.02 148.6,-167.02 151.4,-167.02" />
</g>

<g id="node2" class="node">
<title>node1</title>
<polygon fill="none" stroke="#d67c03" stroke-width="0.5" stroke-dasharray="5,2" points="230.5,-323 69.5,-323 69.5,-259 230.5,-259 230.5,-323" />
<svg width="153px" height="56px" viewBox="0 0 204.48625 74.955002" version="1.1" preserveAspectRatio="xMinYMin meet" x="74" y="-319">
 <metadata>
  <rdf:RDF>
   <ns2:Work>
    <dc:type rdf:resource="http://purl.org/dc/dcmitype/StillImage" />
    <dc:date>2023-09-20T13:51:40.846286</dc:date>
    <dc:format>image/svg+xml</dc:format>
    <dc:creator>
     <ns2:Agent>
      <dc:title>Matplotlib v3.6.2, https://matplotlib.org/</dc:title>
     </ns2:Agent>
    </dc:creator>
   </ns2:Work>
  </rdf:RDF>
 </metadata>
 <defs>
  <style type="text/css">*{stroke-linejoin: round; stroke-linecap: butt}</style>
 </defs>
 <g id="figure_1">
  <g id="patch_1">
   <path d="M 0 74.955002  L 204.48625 74.955002  L 204.48625 0  L 0 0  z " style="fill: #ffffff" />
  </g>
  <g id="axes_1">
   <g id="patch_2">
    <path d="M 20.34625 41.164377  L 204.48625 41.164377  L 204.48625 0.948062  L 20.34625 0.948062  z " style="fill: #ffffff" />
   </g>
   <g id="patch_3">
    <path d="M 36.358424 41.164377  L 44.364511 41.164377  L 44.364511 40.366434  L 36.358424 40.366434  z " clip-path="url(#pbeb2a9d027)" style="fill: #fefebb; stroke: #444443; stroke-width: 0.5; stroke-linejoin: miter" />
   </g>
   <g id="patch_4">
    <path d="M 44.364511 41.164377  L 52.370598 41.164377  L 52.370598 41.164377  L 44.364511 41.164377  z " clip-path="url(#pbeb2a9d027)" style="fill: #fefebb; stroke: #444443; stroke-width: 0.5; stroke-linejoin: miter" />
   </g>
   <g id="patch_5">
    <path d="M 52.370598 41.164377  L 60.376685 41.164377  L 60.376685 41.164377  L 52.370598 41.164377  z " clip-path="url(#pbeb2a9d027)" style="fill: #fefebb; stroke: #444443; stroke-width: 0.5; stroke-linejoin: miter" />
   </g>
   <g id="patch_6">
    <path d="M 60.376685 41.164377  L 68.382772 41.164377  L 68.382772 41.164377  L 60.376685 41.164377  z " clip-path="url(#pbeb2a9d027)" style="fill: #fefebb; stroke: #444443; stroke-width: 0.5; stroke-linejoin: miter" />
   </g>
   <g id="patch_7">
    <path d="M 68.382772 41.164377  L 76.388859 41.164377  L 76.388859 41.164377  L 68.382772 41.164377  z " clip-path="url(#pbeb2a9d027)" style="fill: #fefebb; stroke: #444443; stroke-width: 0.5; stroke-linejoin: miter" />
   </g>
   <g id="patch_8">
    <path d="M 76.388859 41.164377  L 84.394946 41.164377  L 84.394946 41.164377  L 76.388859 41.164377  z " clip-path="url(#pbeb2a9d027)" style="fill: #fefebb; stroke: #444443; stroke-width: 0.5; stroke-linejoin: miter" />
   </g>
   <g id="patch_9">
    <path d="M 84.394946 41.164377  L 92.401033 41.164377  L 92.401033 41.164377  L 84.394946 41.164377  z " clip-path="url(#pbeb2a9d027)" style="fill: #fefebb; stroke: #444443; stroke-width: 0.5; stroke-linejoin: miter" />
   </g>
   <g id="patch_10">
    <path d="M 92.401033 41.164377  L 100.40712 41.164377  L 100.40712 41.164377  L 92.401033 41.164377  z " clip-path="url(#pbeb2a9d027)" style="fill: #fefebb; stroke: #444443; stroke-width: 0.5; stroke-linejoin: miter" />
   </g>
   <g id="patch_11">
    <path d="M 100.40712 41.164377  L 108.413207 41.164377  L 108.413207 41.164377  L 100.40712 41.164377  z " clip-path="url(#pbeb2a9d027)" style="fill: #fefebb; stroke: #444443; stroke-width: 0.5; stroke-linejoin: miter" />
   </g>
   <g id="patch_12">
    <path d="M 108.413207 41.164377  L 116.419293 41.164377  L 116.419293 39.568492  L 108.413207 39.568492  z " clip-path="url(#pbeb2a9d027)" style="fill: #fefebb; stroke: #444443; stroke-width: 0.5; stroke-linejoin: miter" />
   </g>
   <g id="patch_13">
    <path d="M 116.419293 41.164377  L 124.42538 41.164377  L 124.42538 41.164377  L 116.419293 41.164377  z " clip-path="url(#pbeb2a9d027)" style="fill: #fefebb; stroke: #444443; stroke-width: 0.5; stroke-linejoin: miter" />
   </g>
   <g id="patch_14">
    <path d="M 124.42538 41.164377  L 132.431467 41.164377  L 132.431467 41.164377  L 124.42538 41.164377  z " clip-path="url(#pbeb2a9d027)" style="fill: #fefebb; stroke: #444443; stroke-width: 0.5; stroke-linejoin: miter" />
   </g>
   <g id="patch_15">
    <path d="M 132.431467 41.164377  L 140.437554 41.164377  L 140.437554 41.164377  L 132.431467 41.164377  z " clip-path="url(#pbeb2a9d027)" style="fill: #fefebb; stroke: #444443; stroke-width: 0.5; stroke-linejoin: miter" />
   </g>
   <g id="patch_16">
    <path d="M 140.437554 41.164377  L 148.443641 41.164377  L 148.443641 41.164377  L 140.437554 41.164377  z " clip-path="url(#pbeb2a9d027)" style="fill: #fefebb; stroke: #444443; stroke-width: 0.5; stroke-linejoin: miter" />
   </g>
   <g id="patch_17">
    <path d="M 148.443641 41.164377  L 156.449728 41.164377  L 156.449728 41.164377  L 148.443641 41.164377  z " clip-path="url(#pbeb2a9d027)" style="fill: #fefebb; stroke: #444443; stroke-width: 0.5; stroke-linejoin: miter" />
   </g>
   <g id="patch_18">
    <path d="M 156.449728 41.164377  L 164.455815 41.164377  L 164.455815 41.164377  L 156.449728 41.164377  z " clip-path="url(#pbeb2a9d027)" style="fill: #fefebb; stroke: #444443; stroke-width: 0.5; stroke-linejoin: miter" />
   </g>
   <g id="patch_19">
    <path d="M 164.455815 41.164377  L 172.461902 41.164377  L 172.461902 41.164377  L 164.455815 41.164377  z " clip-path="url(#pbeb2a9d027)" style="fill: #fefebb; stroke: #444443; stroke-width: 0.5; stroke-linejoin: miter" />
   </g>
   <g id="patch_20">
    <path d="M 172.461902 41.164377  L 180.467989 41.164377  L 180.467989 41.164377  L 172.461902 41.164377  z " clip-path="url(#pbeb2a9d027)" style="fill: #fefebb; stroke: #444443; stroke-width: 0.5; stroke-linejoin: miter" />
   </g>
   <g id="patch_21">
    <path d="M 180.467989 41.164377  L 188.474076 41.164377  L 188.474076 22.013751  L 180.467989 22.013751  z " clip-path="url(#pbeb2a9d027)" style="fill: #fefebb; stroke: #444443; stroke-width: 0.5; stroke-linejoin: miter" />
   </g>
   <g id="patch_22">
    <path d="M 36.358424 40.366434  L 44.364511 40.366434  L 44.364511 16.162171  L 36.358424 16.162171  z " clip-path="url(#pbeb2a9d027)" style="fill: #a1dab4; stroke: #444443; stroke-width: 0.5; stroke-linejoin: miter" />
   </g>
   <g id="patch_23">
    <path d="M 44.364511 41.164377  L 52.370598 41.164377  L 52.370598 41.164377  L 44.364511 41.164377  z " clip-path="url(#pbeb2a9d027)" style="fill: #a1dab4; stroke: #444443; stroke-width: 0.5; stroke-linejoin: miter" />
   </g>
   <g id="patch_24">
    <path d="M 52.370598 41.164377  L 60.376685 41.164377  L 60.376685 41.164377  L 52.370598 41.164377  z " clip-path="url(#pbeb2a9d027)" style="fill: #a1dab4; stroke: #444443; stroke-width: 0.5; stroke-linejoin: miter" />
   </g>
   <g id="patch_25">
    <path d="M 60.376685 41.164377  L 68.382772 41.164377  L 68.382772 41.164377  L 60.376685 41.164377  z " clip-path="url(#pbeb2a9d027)" style="fill: #a1dab4; stroke: #444443; stroke-width: 0.5; stroke-linejoin: miter" />
   </g>
   <g id="patch_26">
    <path d="M 68.382772 41.164377  L 76.388859 41.164377  L 76.388859 41.164377  L 68.382772 41.164377  z " clip-path="url(#pbeb2a9d027)" style="fill: #a1dab4; stroke: #444443; stroke-width: 0.5; stroke-linejoin: miter" />
   </g>
   <g id="patch_27">
    <path d="M 76.388859 41.164377  L 84.394946 41.164377  L 84.394946 41.164377  L 76.388859 41.164377  z " clip-path="url(#pbeb2a9d027)" style="fill: #a1dab4; stroke: #444443; stroke-width: 0.5; stroke-linejoin: miter" />
   </g>
   <g id="patch_28">
    <path d="M 84.394946 41.164377  L 92.401033 41.164377  L 92.401033 41.164377  L 84.394946 41.164377  z " clip-path="url(#pbeb2a9d027)" style="fill: #a1dab4; stroke: #444443; stroke-width: 0.5; stroke-linejoin: miter" />
   </g>
   <g id="patch_29">
    <path d="M 92.401033 41.164377  L 100.40712 41.164377  L 100.40712 41.164377  L 92.401033 41.164377  z " clip-path="url(#pbeb2a9d027)" style="fill: #a1dab4; stroke: #444443; stroke-width: 0.5; stroke-linejoin: miter" />
   </g>
   <g id="patch_30">
    <path d="M 100.40712 41.164377  L 108.413207 41.164377  L 108.413207 41.164377  L 100.40712 41.164377  z " clip-path="url(#pbeb2a9d027)" style="fill: #a1dab4; stroke: #444443; stroke-width: 0.5; stroke-linejoin: miter" />
   </g>
   <g id="patch_31">
    <path d="M 108.413207 39.568492  L 116.419293 39.568492  L 116.419293 20.949827  L 108.413207 20.949827  z " clip-path="url(#pbeb2a9d027)" style="fill: #a1dab4; stroke: #444443; stroke-width: 0.5; stroke-linejoin: miter" />
   </g>
   <g id="patch_32">
    <path d="M 116.419293 41.164377  L 124.42538 41.164377  L 124.42538 41.164377  L 116.419293 41.164377  z " clip-path="url(#pbeb2a9d027)" style="fill: #a1dab4; stroke: #444443; stroke-width: 0.5; stroke-linejoin: miter" />
   </g>
   <g id="patch_33">
    <path d="M 124.42538 41.164377  L 132.431467 41.164377  L 132.431467 41.164377  L 124.42538 41.164377  z " clip-path="url(#pbeb2a9d027)" style="fill: #a1dab4; stroke: #444443; stroke-width: 0.5; stroke-linejoin: miter" />
   </g>
   <g id="patch_34">
    <path d="M 132.431467 41.164377  L 140.437554 41.164377  L 140.437554 41.164377  L 132.431467 41.164377  z " clip-path="url(#pbeb2a9d027)" style="fill: #a1dab4; stroke: #444443; stroke-width: 0.5; stroke-linejoin: miter" />
   </g>
   <g id="patch_35">
    <path d="M 140.437554 41.164377  L 148.443641 41.164377  L 148.443641 41.164377  L 140.437554 41.164377  z " clip-path="url(#pbeb2a9d027)" style="fill: #a1dab4; stroke: #444443; stroke-width: 0.5; stroke-linejoin: miter" />
   </g>
   <g id="patch_36">
    <path d="M 148.443641 41.164377  L 156.449728 41.164377  L 156.449728 41.164377  L 148.443641 41.164377  z " clip-path="url(#pbeb2a9d027)" style="fill: #a1dab4; stroke: #444443; stroke-width: 0.5; stroke-linejoin: miter" />
   </g>
   <g id="patch_37">
    <path d="M 156.449728 41.164377  L 164.455815 41.164377  L 164.455815 41.164377  L 156.449728 41.164377  z " clip-path="url(#pbeb2a9d027)" style="fill: #a1dab4; stroke: #444443; stroke-width: 0.5; stroke-linejoin: miter" />
   </g>
   <g id="patch_38">
    <path d="M 164.455815 41.164377  L 172.461902 41.164377  L 172.461902 41.164377  L 164.455815 41.164377  z " clip-path="url(#pbeb2a9d027)" style="fill: #a1dab4; stroke: #444443; stroke-width: 0.5; stroke-linejoin: miter" />
   </g>
   <g id="patch_39">
    <path d="M 172.461902 41.164377  L 180.467989 41.164377  L 180.467989 41.164377  L 172.461902 41.164377  z " clip-path="url(#pbeb2a9d027)" style="fill: #a1dab4; stroke: #444443; stroke-width: 0.5; stroke-linejoin: miter" />
   </g>
   <g id="patch_40">
    <path d="M 180.467989 22.013751  L 188.474076 22.013751  L 188.474076 2.863125  L 180.467989 2.863125  z " clip-path="url(#pbeb2a9d027)" style="fill: #a1dab4; stroke: #444443; stroke-width: 0.5; stroke-linejoin: miter" />
   </g>
   <g id="patch_41">
    <path d="M 150.445163 41.995977  L 147.130643 50.311977  L 153.759683 50.311977  z " style="fill: #444443" />
   </g>
   <g id="patch_42">
    <path d="M 188.474076 41.995977  L 185.159556 50.311977  L 191.788596 50.311977  z " style="fill: #d67c03" />
   </g>
   <g id="matplotlib.axis_1">
    <g id="xtick_1">
     <g id="line2d_1">
      <defs>
       <path id="m38d7532223" d="M 0 0  L 0 3.5  " style="stroke: #000000; stroke-width: 0.3" />
      </defs>
      <g>
       <use xlink:href="#m38d7532223" x="36.358424" y="41.164377" style="stroke: #000000; stroke-width: 0.3" />
      </g>
     </g>
     <g id="text_1">
      
      <g style="fill: #444443" transform="translate(30.798424 58.390627) scale(0.08 -0.08)">
       <defs>
        <path id="ArialMT-31" d="M 2384 0  L 1822 0  L 1822 3584  Q 1619 3391 1289 3197  Q 959 3003 697 2906  L 697 3450  Q 1169 3672 1522 3987  Q 1875 4303 2022 4600  L 2384 4600  L 2384 0  z " transform="scale(0.015625)" />
        <path id="ArialMT-2e" d="M 581 0  L 581 641  L 1222 641  L 1222 0  L 581 0  z " transform="scale(0.015625)" />
        <path id="ArialMT-30" d="M 266 2259  Q 266 3072 433 3567  Q 600 4063 929 4331  Q 1259 4600 1759 4600  Q 2128 4600 2406 4451  Q 2684 4303 2865 4023  Q 3047 3744 3150 3342  Q 3253 2941 3253 2259  Q 3253 1453 3087 958  Q 2922 463 2592 192  Q 2263 -78 1759 -78  Q 1097 -78 719 397  Q 266 969 266 2259  z M 844 2259  Q 844 1131 1108 757  Q 1372 384 1759 384  Q 2147 384 2411 759  Q 2675 1134 2675 2259  Q 2675 3391 2411 3762  Q 2147 4134 1753 4134  Q 1366 4134 1134 3806  Q 844 3388 844 2259  z " transform="scale(0.015625)" />
       </defs>
       <use xlink:href="#ArialMT-31" />
       <use xlink:href="#ArialMT-2e" x="55.615234" />
       <use xlink:href="#ArialMT-30" x="83.398438" />
      </g>
     </g>
    </g>
    <g id="xtick_2">
     <g id="line2d_2">
      <g>
       <use xlink:href="#m38d7532223" x="150.445163" y="41.164377" style="stroke: #000000; stroke-width: 0.3" />
      </g>
     </g>
     <g id="text_2">
      
      <g style="fill: #444443" transform="translate(144.885163 58.390627) scale(0.08 -0.08)">
       <defs>
        <path id="ArialMT-32" d="M 3222 541  L 3222 0  L 194 0  Q 188 203 259 391  Q 375 700 629 1000  Q 884 1300 1366 1694  Q 2113 2306 2375 2664  Q 2638 3022 2638 3341  Q 2638 3675 2398 3904  Q 2159 4134 1775 4134  Q 1369 4134 1125 3890  Q 881 3647 878 3216  L 300 3275  Q 359 3922 746 4261  Q 1134 4600 1788 4600  Q 2447 4600 2831 4234  Q 3216 3869 3216 3328  Q 3216 3053 3103 2787  Q 2991 2522 2730 2228  Q 2469 1934 1863 1422  Q 1356 997 1212 845  Q 1069 694 975 541  L 3222 541  z " transform="scale(0.015625)" />
        <path id="ArialMT-35" d="M 266 1200  L 856 1250  Q 922 819 1161 601  Q 1400 384 1738 384  Q 2144 384 2425 690  Q 2706 997 2706 1503  Q 2706 1984 2436 2262  Q 2166 2541 1728 2541  Q 1456 2541 1237 2417  Q 1019 2294 894 2097  L 366 2166  L 809 4519  L 3088 4519  L 3088 3981  L 1259 3981  L 1013 2750  Q 1425 3038 1878 3038  Q 2478 3038 2890 2622  Q 3303 2206 3303 1553  Q 3303 931 2941 478  Q 2500 -78 1738 -78  Q 1113 -78 717 272  Q 322 622 266 1200  z " transform="scale(0.015625)" />
       </defs>
       <use xlink:href="#ArialMT-32" />
       <use xlink:href="#ArialMT-2e" x="55.615234" />
       <use xlink:href="#ArialMT-35" x="83.398438" />
      </g>
     </g>
    </g>
    <g id="xtick_3">
     <g id="line2d_3">
      <g>
       <use xlink:href="#m38d7532223" x="188.474076" y="41.164377" style="stroke: #000000; stroke-width: 0.3" />
      </g>
     </g>
     <g id="text_3">
      
      <g style="fill: #444443" transform="translate(182.914076 58.390627) scale(0.08 -0.08)">
       <defs>
        <path id="ArialMT-33" d="M 269 1209  L 831 1284  Q 928 806 1161 595  Q 1394 384 1728 384  Q 2125 384 2398 659  Q 2672 934 2672 1341  Q 2672 1728 2419 1979  Q 2166 2231 1775 2231  Q 1616 2231 1378 2169  L 1441 2663  Q 1497 2656 1531 2656  Q 1891 2656 2178 2843  Q 2466 3031 2466 3422  Q 2466 3731 2256 3934  Q 2047 4138 1716 4138  Q 1388 4138 1169 3931  Q 950 3725 888 3313  L 325 3413  Q 428 3978 793 4289  Q 1159 4600 1703 4600  Q 2078 4600 2393 4439  Q 2709 4278 2876 4000  Q 3044 3722 3044 3409  Q 3044 3113 2884 2869  Q 2725 2625 2413 2481  Q 2819 2388 3044 2092  Q 3269 1797 3269 1353  Q 3269 753 2831 336  Q 2394 -81 1725 -81  Q 1122 -81 723 278  Q 325 638 269 1209  z " transform="scale(0.015625)" />
       </defs>
       <use xlink:href="#ArialMT-33" />
       <use xlink:href="#ArialMT-2e" x="55.615234" />
       <use xlink:href="#ArialMT-30" x="83.398438" />
      </g>
     </g>
    </g>
    <g id="text_4">
     
     <g style="fill: #444443" transform="translate(94.744375 72.570002) scale(0.12 -0.12)">
      <defs>
       <path id="ArialMT-50" d="M 494 0  L 494 4581  L 2222 4581  Q 2678 4581 2919 4538  Q 3256 4481 3484 4323  Q 3713 4166 3852 3881  Q 3991 3597 3991 3256  Q 3991 2672 3619 2267  Q 3247 1863 2275 1863  L 1100 1863  L 1100 0  L 494 0  z M 1100 2403  L 2284 2403  Q 2872 2403 3119 2622  Q 3366 2841 3366 3238  Q 3366 3525 3220 3729  Q 3075 3934 2838 4000  Q 2684 4041 2272 4041  L 1100 4041  L 1100 2403  z " transform="scale(0.015625)" />
       <path id="ArialMT-63" d="M 2588 1216  L 3141 1144  Q 3050 572 2676 248  Q 2303 -75 1759 -75  Q 1078 -75 664 370  Q 250 816 250 1647  Q 250 2184 428 2587  Q 606 2991 970 3192  Q 1334 3394 1763 3394  Q 2303 3394 2647 3120  Q 2991 2847 3088 2344  L 2541 2259  Q 2463 2594 2264 2762  Q 2066 2931 1784 2931  Q 1359 2931 1093 2626  Q 828 2322 828 1663  Q 828 994 1084 691  Q 1341 388 1753 388  Q 2084 388 2306 591  Q 2528 794 2588 1216  z " transform="scale(0.015625)" />
       <path id="ArialMT-6c" d="M 409 0  L 409 4581  L 972 4581  L 972 0  L 409 0  z " transform="scale(0.015625)" />
       <path id="ArialMT-61" d="M 2588 409  Q 2275 144 1986 34  Q 1697 -75 1366 -75  Q 819 -75 525 192  Q 231 459 231 875  Q 231 1119 342 1320  Q 453 1522 633 1644  Q 813 1766 1038 1828  Q 1203 1872 1538 1913  Q 2219 1994 2541 2106  Q 2544 2222 2544 2253  Q 2544 2597 2384 2738  Q 2169 2928 1744 2928  Q 1347 2928 1158 2789  Q 969 2650 878 2297  L 328 2372  Q 403 2725 575 2942  Q 747 3159 1072 3276  Q 1397 3394 1825 3394  Q 2250 3394 2515 3294  Q 2781 3194 2906 3042  Q 3031 2891 3081 2659  Q 3109 2516 3109 2141  L 3109 1391  Q 3109 606 3145 398  Q 3181 191 3288 0  L 2700 0  Q 2613 175 2588 409  z M 2541 1666  Q 2234 1541 1622 1453  Q 1275 1403 1131 1340  Q 988 1278 909 1158  Q 831 1038 831 891  Q 831 666 1001 516  Q 1172 366 1500 366  Q 1825 366 2078 508  Q 2331 650 2450 897  Q 2541 1088 2541 1459  L 2541 1666  z " transform="scale(0.015625)" />
       <path id="ArialMT-73" d="M 197 991  L 753 1078  Q 800 744 1014 566  Q 1228 388 1613 388  Q 2000 388 2187 545  Q 2375 703 2375 916  Q 2375 1106 2209 1216  Q 2094 1291 1634 1406  Q 1016 1563 777 1677  Q 538 1791 414 1992  Q 291 2194 291 2438  Q 291 2659 392 2848  Q 494 3038 669 3163  Q 800 3259 1026 3326  Q 1253 3394 1513 3394  Q 1903 3394 2198 3281  Q 2494 3169 2634 2976  Q 2775 2784 2828 2463  L 2278 2388  Q 2241 2644 2061 2787  Q 1881 2931 1553 2931  Q 1166 2931 1000 2803  Q 834 2675 834 2503  Q 834 2394 903 2306  Q 972 2216 1119 2156  Q 1203 2125 1616 2013  Q 2213 1853 2448 1751  Q 2684 1650 2818 1456  Q 2953 1263 2953 975  Q 2953 694 2789 445  Q 2625 197 2315 61  Q 2006 -75 1616 -75  Q 969 -75 630 194  Q 291 463 197 991  z " transform="scale(0.015625)" />
      </defs>
      <use xlink:href="#ArialMT-50" />
      <use xlink:href="#ArialMT-63" x="66.699219" />
      <use xlink:href="#ArialMT-6c" x="116.699219" />
      <use xlink:href="#ArialMT-61" x="138.916016" />
      <use xlink:href="#ArialMT-73" x="194.53125" />
      <use xlink:href="#ArialMT-73" x="244.53125" />
     </g>
    </g>
   </g>
   <g id="matplotlib.axis_2">
    <g id="ytick_1">
     <g id="line2d_4">
      <defs>
       <path id="m8e5f441b72" d="M 0 0  L -3.5 0  " style="stroke: #000000; stroke-width: 0.3" />
      </defs>
      <g>
       <use xlink:href="#m8e5f441b72" x="20.34625" y="41.164377" style="stroke: #000000; stroke-width: 0.3" />
      </g>
     </g>
     <g id="text_5">
      
      <g style="fill: #444443" transform="translate(8.8975 44.027502) scale(0.08 -0.08)">
       <use xlink:href="#ArialMT-30" />
      </g>
     </g>
    </g>
    <g id="ytick_2">
     <g id="line2d_5">
      <g>
       <use xlink:href="#m8e5f441b72" x="20.34625" y="2.863125" style="stroke: #000000; stroke-width: 0.3" />
      </g>
     </g>
     <g id="text_6">
      
      <g style="fill: #444443" transform="translate(-0 5.72625) scale(0.08 -0.08)">
       <defs>
        <path id="ArialMT-34" d="M 2069 0  L 2069 1097  L 81 1097  L 81 1613  L 2172 4581  L 2631 4581  L 2631 1613  L 3250 1613  L 3250 1097  L 2631 1097  L 2631 0  L 2069 0  z M 2069 1613  L 2069 3678  L 634 1613  L 2069 1613  z " transform="scale(0.015625)" />
       </defs>
       <use xlink:href="#ArialMT-31" />
       <use xlink:href="#ArialMT-34" x="55.615234" />
       <use xlink:href="#ArialMT-34" x="111.230469" />
      </g>
     </g>
    </g>
   </g>
   <g id="patch_43">
    <path d="M 20.34625 41.164377  L 20.34625 0.948062  " style="fill: none; stroke: #444443; stroke-width: 0.3; stroke-linejoin: miter; stroke-linecap: square" />
   </g>
   <g id="patch_44">
    <path d="M 20.34625 41.164377  L 204.48625 41.164377  " style="fill: none; stroke: #444443; stroke-width: 0.3; stroke-linejoin: miter; stroke-linecap: square" />
   </g>
  </g>
 </g>
 <defs>
  <clipPath id="pbeb2a9d027">
   <rect x="20.34625" y="0.948062" width="184.14" height="40.216315" />
  </clipPath>
 </defs>
</svg></g>

<g id="edge2" class="edge">
<title>node1-&gt;node5</title>
<path fill="none" stroke="#d67c03" stroke-width="1.2" d="M150,-258.72C150,-254.59 150,-250.34 150,-246.16" />
<polygon fill="#d67c03" stroke="#d67c03" stroke-width="1.2" points="151.4,-246.02 150,-242.02 148.6,-246.02 151.4,-246.02" />
</g>

<g id="node3" class="node">
<title>node0</title>
<polygon fill="none" stroke="#d67c03" stroke-width="0.5" stroke-dasharray="5,2" points="230.5,-435 69.5,-435 69.5,-340 230.5,-340 230.5,-435" />
<svg width="153px" height="87px" viewBox="0 0 204.48625 117.096875" version="1.1" preserveAspectRatio="xMinYMin meet" x="74" y="-430.5">
 <metadata>
  <rdf:RDF>
   <ns2:Work>
    <dc:type rdf:resource="http://purl.org/dc/dcmitype/StillImage" />
    <dc:date>2023-09-20T13:51:40.907352</dc:date>
    <dc:format>image/svg+xml</dc:format>
    <dc:creator>
     <ns2:Agent>
      <dc:title>Matplotlib v3.6.2, https://matplotlib.org/</dc:title>
     </ns2:Agent>
    </dc:creator>
   </ns2:Work>
  </rdf:RDF>
 </metadata>
 <defs>
  <style type="text/css">*{stroke-linejoin: round; stroke-linecap: butt}</style>
 </defs>
 <g id="figure_1">
  <g id="patch_1">
   <path d="M 0 117.096875  L 204.48625 117.096875  L 204.48625 0  L 0 0  z " style="fill: #ffffff" />
  </g>
  <g id="axes_1">
   <g id="patch_2">
    <path d="M 20.34625 83.16  L 204.48625 83.16  L 204.48625 0  L 20.34625 0  z " style="fill: #ffffff" />
   </g>
   <g id="patch_3">
    <path d="M 36.358424 83.16  L 44.364511 83.16  L 44.364511 72.041802  L 36.358424 72.041802  z " clip-path="url(#p3135558318)" style="fill: #fefebb; stroke: #444443; stroke-width: 0.5; stroke-linejoin: miter" />
   </g>
   <g id="patch_4">
    <path d="M 44.364511 83.16  L 52.370598 83.16  L 52.370598 83.16  L 44.364511 83.16  z " clip-path="url(#p3135558318)" style="fill: #fefebb; stroke: #444443; stroke-width: 0.5; stroke-linejoin: miter" />
   </g>
   <g id="patch_5">
    <path d="M 52.370598 83.16  L 60.376685 83.16  L 60.376685 83.16  L 52.370598 83.16  z " clip-path="url(#p3135558318)" style="fill: #fefebb; stroke: #444443; stroke-width: 0.5; stroke-linejoin: miter" />
   </g>
   <g id="patch_6">
    <path d="M 60.376685 83.16  L 68.382772 83.16  L 68.382772 83.16  L 60.376685 83.16  z " clip-path="url(#p3135558318)" style="fill: #fefebb; stroke: #444443; stroke-width: 0.5; stroke-linejoin: miter" />
   </g>
   <g id="patch_7">
    <path d="M 68.382772 83.16  L 76.388859 83.16  L 76.388859 83.16  L 68.382772 83.16  z " clip-path="url(#p3135558318)" style="fill: #fefebb; stroke: #444443; stroke-width: 0.5; stroke-linejoin: miter" />
   </g>
   <g id="patch_8">
    <path d="M 76.388859 83.16  L 84.394946 83.16  L 84.394946 83.16  L 76.388859 83.16  z " clip-path="url(#p3135558318)" style="fill: #fefebb; stroke: #444443; stroke-width: 0.5; stroke-linejoin: miter" />
   </g>
   <g id="patch_9">
    <path d="M 84.394946 83.16  L 92.401033 83.16  L 92.401033 83.16  L 84.394946 83.16  z " clip-path="url(#p3135558318)" style="fill: #fefebb; stroke: #444443; stroke-width: 0.5; stroke-linejoin: miter" />
   </g>
   <g id="patch_10">
    <path d="M 92.401033 83.16  L 100.40712 83.16  L 100.40712 83.16  L 92.401033 83.16  z " clip-path="url(#p3135558318)" style="fill: #fefebb; stroke: #444443; stroke-width: 0.5; stroke-linejoin: miter" />
   </g>
   <g id="patch_11">
    <path d="M 100.40712 83.16  L 108.413207 83.16  L 108.413207 83.16  L 100.40712 83.16  z " clip-path="url(#p3135558318)" style="fill: #fefebb; stroke: #444443; stroke-width: 0.5; stroke-linejoin: miter" />
   </g>
   <g id="patch_12">
    <path d="M 108.413207 83.16  L 116.419293 83.16  L 116.419293 83.16  L 108.413207 83.16  z " clip-path="url(#p3135558318)" style="fill: #fefebb; stroke: #444443; stroke-width: 0.5; stroke-linejoin: miter" />
   </g>
   <g id="patch_13">
    <path d="M 116.419293 83.16  L 124.42538 83.16  L 124.42538 83.16  L 116.419293 83.16  z " clip-path="url(#p3135558318)" style="fill: #fefebb; stroke: #444443; stroke-width: 0.5; stroke-linejoin: miter" />
   </g>
   <g id="patch_14">
    <path d="M 124.42538 83.16  L 132.431467 83.16  L 132.431467 83.16  L 124.42538 83.16  z " clip-path="url(#p3135558318)" style="fill: #fefebb; stroke: #444443; stroke-width: 0.5; stroke-linejoin: miter" />
   </g>
   <g id="patch_15">
    <path d="M 132.431467 83.16  L 140.437554 83.16  L 140.437554 83.16  L 132.431467 83.16  z " clip-path="url(#p3135558318)" style="fill: #fefebb; stroke: #444443; stroke-width: 0.5; stroke-linejoin: miter" />
   </g>
   <g id="patch_16">
    <path d="M 140.437554 83.16  L 148.443641 83.16  L 148.443641 83.16  L 140.437554 83.16  z " clip-path="url(#p3135558318)" style="fill: #fefebb; stroke: #444443; stroke-width: 0.5; stroke-linejoin: miter" />
   </g>
   <g id="patch_17">
    <path d="M 148.443641 83.16  L 156.449728 83.16  L 156.449728 83.16  L 148.443641 83.16  z " clip-path="url(#p3135558318)" style="fill: #fefebb; stroke: #444443; stroke-width: 0.5; stroke-linejoin: miter" />
   </g>
   <g id="patch_18">
    <path d="M 156.449728 83.16  L 164.455815 83.16  L 164.455815 83.16  L 156.449728 83.16  z " clip-path="url(#p3135558318)" style="fill: #fefebb; stroke: #444443; stroke-width: 0.5; stroke-linejoin: miter" />
   </g>
   <g id="patch_19">
    <path d="M 164.455815 83.16  L 172.461902 83.16  L 172.461902 83.16  L 164.455815 83.16  z " clip-path="url(#p3135558318)" style="fill: #fefebb; stroke: #444443; stroke-width: 0.5; stroke-linejoin: miter" />
   </g>
   <g id="patch_20">
    <path d="M 172.461902 83.16  L 180.467989 83.16  L 180.467989 83.16  L 172.461902 83.16  z " clip-path="url(#p3135558318)" style="fill: #fefebb; stroke: #444443; stroke-width: 0.5; stroke-linejoin: miter" />
   </g>
   <g id="patch_21">
    <path d="M 180.467989 83.16  L 188.474076 83.16  L 188.474076 18.921525  L 180.467989 18.921525  z " clip-path="url(#p3135558318)" style="fill: #fefebb; stroke: #444443; stroke-width: 0.5; stroke-linejoin: miter" />
   </g>
   <g id="patch_22">
    <path d="M 36.358424 72.041802  L 44.364511 72.041802  L 44.364511 40.059827  L 36.358424 40.059827  z " clip-path="url(#p3135558318)" style="fill: #a1dab4; stroke: #444443; stroke-width: 0.5; stroke-linejoin: miter" />
   </g>
   <g id="patch_23">
    <path d="M 44.364511 83.16  L 52.370598 83.16  L 52.370598 83.16  L 44.364511 83.16  z " clip-path="url(#p3135558318)" style="fill: #a1dab4; stroke: #444443; stroke-width: 0.5; stroke-linejoin: miter" />
   </g>
   <g id="patch_24">
    <path d="M 52.370598 83.16  L 60.376685 83.16  L 60.376685 83.16  L 52.370598 83.16  z " clip-path="url(#p3135558318)" style="fill: #a1dab4; stroke: #444443; stroke-width: 0.5; stroke-linejoin: miter" />
   </g>
   <g id="patch_25">
    <path d="M 60.376685 83.16  L 68.382772 83.16  L 68.382772 83.16  L 60.376685 83.16  z " clip-path="url(#p3135558318)" style="fill: #a1dab4; stroke: #444443; stroke-width: 0.5; stroke-linejoin: miter" />
   </g>
   <g id="patch_26">
    <path d="M 68.382772 83.16  L 76.388859 83.16  L 76.388859 83.16  L 68.382772 83.16  z " clip-path="url(#p3135558318)" style="fill: #a1dab4; stroke: #444443; stroke-width: 0.5; stroke-linejoin: miter" />
   </g>
   <g id="patch_27">
    <path d="M 76.388859 83.16  L 84.394946 83.16  L 84.394946 83.16  L 76.388859 83.16  z " clip-path="url(#p3135558318)" style="fill: #a1dab4; stroke: #444443; stroke-width: 0.5; stroke-linejoin: miter" />
   </g>
   <g id="patch_28">
    <path d="M 84.394946 83.16  L 92.401033 83.16  L 92.401033 83.16  L 84.394946 83.16  z " clip-path="url(#p3135558318)" style="fill: #a1dab4; stroke: #444443; stroke-width: 0.5; stroke-linejoin: miter" />
   </g>
   <g id="patch_29">
    <path d="M 92.401033 83.16  L 100.40712 83.16  L 100.40712 83.16  L 92.401033 83.16  z " clip-path="url(#p3135558318)" style="fill: #a1dab4; stroke: #444443; stroke-width: 0.5; stroke-linejoin: miter" />
   </g>
   <g id="patch_30">
    <path d="M 100.40712 83.16  L 108.413207 83.16  L 108.413207 83.16  L 100.40712 83.16  z " clip-path="url(#p3135558318)" style="fill: #a1dab4; stroke: #444443; stroke-width: 0.5; stroke-linejoin: miter" />
   </g>
   <g id="patch_31">
    <path d="M 108.413207 83.16  L 116.419293 83.16  L 116.419293 83.16  L 108.413207 83.16  z " clip-path="url(#p3135558318)" style="fill: #a1dab4; stroke: #444443; stroke-width: 0.5; stroke-linejoin: miter" />
   </g>
   <g id="patch_32">
    <path d="M 116.419293 83.16  L 124.42538 83.16  L 124.42538 83.16  L 116.419293 83.16  z " clip-path="url(#p3135558318)" style="fill: #a1dab4; stroke: #444443; stroke-width: 0.5; stroke-linejoin: miter" />
   </g>
   <g id="patch_33">
    <path d="M 124.42538 83.16  L 132.431467 83.16  L 132.431467 83.16  L 124.42538 83.16  z " clip-path="url(#p3135558318)" style="fill: #a1dab4; stroke: #444443; stroke-width: 0.5; stroke-linejoin: miter" />
   </g>
   <g id="patch_34">
    <path d="M 132.431467 83.16  L 140.437554 83.16  L 140.437554 83.16  L 132.431467 83.16  z " clip-path="url(#p3135558318)" style="fill: #a1dab4; stroke: #444443; stroke-width: 0.5; stroke-linejoin: miter" />
   </g>
   <g id="patch_35">
    <path d="M 140.437554 83.16  L 148.443641 83.16  L 148.443641 83.16  L 140.437554 83.16  z " clip-path="url(#p3135558318)" style="fill: #a1dab4; stroke: #444443; stroke-width: 0.5; stroke-linejoin: miter" />
   </g>
   <g id="patch_36">
    <path d="M 148.443641 83.16  L 156.449728 83.16  L 156.449728 83.16  L 148.443641 83.16  z " clip-path="url(#p3135558318)" style="fill: #a1dab4; stroke: #444443; stroke-width: 0.5; stroke-linejoin: miter" />
   </g>
   <g id="patch_37">
    <path d="M 156.449728 83.16  L 164.455815 83.16  L 164.455815 83.16  L 156.449728 83.16  z " clip-path="url(#p3135558318)" style="fill: #a1dab4; stroke: #444443; stroke-width: 0.5; stroke-linejoin: miter" />
   </g>
   <g id="patch_38">
    <path d="M 164.455815 83.16  L 172.461902 83.16  L 172.461902 83.16  L 164.455815 83.16  z " clip-path="url(#p3135558318)" style="fill: #a1dab4; stroke: #444443; stroke-width: 0.5; stroke-linejoin: miter" />
   </g>
   <g id="patch_39">
    <path d="M 172.461902 83.16  L 180.467989 83.16  L 180.467989 83.16  L 172.461902 83.16  z " clip-path="url(#p3135558318)" style="fill: #a1dab4; stroke: #444443; stroke-width: 0.5; stroke-linejoin: miter" />
   </g>
   <g id="patch_40">
    <path d="M 180.467989 18.921525  L 188.474076 18.921525  L 188.474076 3.96  L 180.467989 3.96  z " clip-path="url(#p3135558318)" style="fill: #a1dab4; stroke: #444443; stroke-width: 0.5; stroke-linejoin: miter" />
   </g>
   <g id="patch_41">
    <path d="M 112.41625 83.9916  L 109.10173 92.3076  L 115.73077 92.3076  z " style="fill: #444443" />
   </g>
   <g id="patch_42">
    <path d="M 36.358424 83.9916  L 33.043904 92.3076  L 39.672944 92.3076  z " style="fill: #d67c03" />
   </g>
   <g id="matplotlib.axis_1">
    <g id="xtick_1">
     <g id="line2d_1">
      <defs>
       <path id="mf6d92c15ab" d="M 0 0  L 0 3.5  " style="stroke: #000000; stroke-width: 0.3" />
      </defs>
      <g>
       <use xlink:href="#mf6d92c15ab" x="36.358424" y="83.16" style="stroke: #000000; stroke-width: 0.3" />
      </g>
     </g>
     <g id="text_1">
      
      <g style="fill: #444443" transform="translate(30.798424 100.38625) scale(0.08 -0.08)">
       <defs>
        <path id="ArialMT-30" d="M 266 2259  Q 266 3072 433 3567  Q 600 4063 929 4331  Q 1259 4600 1759 4600  Q 2128 4600 2406 4451  Q 2684 4303 2865 4023  Q 3047 3744 3150 3342  Q 3253 2941 3253 2259  Q 3253 1453 3087 958  Q 2922 463 2592 192  Q 2263 -78 1759 -78  Q 1097 -78 719 397  Q 266 969 266 2259  z M 844 2259  Q 844 1131 1108 757  Q 1372 384 1759 384  Q 2147 384 2411 759  Q 2675 1134 2675 2259  Q 2675 3391 2411 3762  Q 2147 4134 1753 4134  Q 1366 4134 1134 3806  Q 844 3388 844 2259  z " transform="scale(0.015625)" />
        <path id="ArialMT-2e" d="M 581 0  L 581 641  L 1222 641  L 1222 0  L 581 0  z " transform="scale(0.015625)" />
       </defs>
       <use xlink:href="#ArialMT-30" />
       <use xlink:href="#ArialMT-2e" x="55.615234" />
       <use xlink:href="#ArialMT-30" x="83.398438" />
      </g>
     </g>
    </g>
    <g id="xtick_2">
     <g id="line2d_2">
      <g>
       <use xlink:href="#mf6d92c15ab" x="112.41625" y="83.16" style="stroke: #000000; stroke-width: 0.3" />
      </g>
     </g>
     <g id="text_2">
      
      <g style="fill: #444443" transform="translate(106.85625 100.38625) scale(0.08 -0.08)">
       <defs>
        <path id="ArialMT-35" d="M 266 1200  L 856 1250  Q 922 819 1161 601  Q 1400 384 1738 384  Q 2144 384 2425 690  Q 2706 997 2706 1503  Q 2706 1984 2436 2262  Q 2166 2541 1728 2541  Q 1456 2541 1237 2417  Q 1019 2294 894 2097  L 366 2166  L 809 4519  L 3088 4519  L 3088 3981  L 1259 3981  L 1013 2750  Q 1425 3038 1878 3038  Q 2478 3038 2890 2622  Q 3303 2206 3303 1553  Q 3303 931 2941 478  Q 2500 -78 1738 -78  Q 1113 -78 717 272  Q 322 622 266 1200  z " transform="scale(0.015625)" />
       </defs>
       <use xlink:href="#ArialMT-30" />
       <use xlink:href="#ArialMT-2e" x="55.615234" />
       <use xlink:href="#ArialMT-35" x="83.398438" />
      </g>
     </g>
    </g>
    <g id="xtick_3">
     <g id="line2d_3">
      <g>
       <use xlink:href="#mf6d92c15ab" x="188.474076" y="83.16" style="stroke: #000000; stroke-width: 0.3" />
      </g>
     </g>
     <g id="text_3">
      
      <g style="fill: #444443" transform="translate(182.914076 100.38625) scale(0.08 -0.08)">
       <defs>
        <path id="ArialMT-31" d="M 2384 0  L 1822 0  L 1822 3584  Q 1619 3391 1289 3197  Q 959 3003 697 2906  L 697 3450  Q 1169 3672 1522 3987  Q 1875 4303 2022 4600  L 2384 4600  L 2384 0  z " transform="scale(0.015625)" />
       </defs>
       <use xlink:href="#ArialMT-31" />
       <use xlink:href="#ArialMT-2e" x="55.615234" />
       <use xlink:href="#ArialMT-30" x="83.398438" />
      </g>
     </g>
    </g>
    <g id="text_4">
     
     <g style="fill: #444443" transform="translate(86.065 114.711875) scale(0.12 -0.12)">
      <defs>
       <path id="ArialMT-53" d="M 288 1472  L 859 1522  Q 900 1178 1048 958  Q 1197 738 1509 602  Q 1822 466 2213 466  Q 2559 466 2825 569  Q 3091 672 3220 851  Q 3350 1031 3350 1244  Q 3350 1459 3225 1620  Q 3100 1781 2813 1891  Q 2628 1963 1997 2114  Q 1366 2266 1113 2400  Q 784 2572 623 2826  Q 463 3081 463 3397  Q 463 3744 659 4045  Q 856 4347 1234 4503  Q 1613 4659 2075 4659  Q 2584 4659 2973 4495  Q 3363 4331 3572 4012  Q 3781 3694 3797 3291  L 3216 3247  Q 3169 3681 2898 3903  Q 2628 4125 2100 4125  Q 1550 4125 1298 3923  Q 1047 3722 1047 3438  Q 1047 3191 1225 3031  Q 1400 2872 2139 2705  Q 2878 2538 3153 2413  Q 3553 2228 3743 1945  Q 3934 1663 3934 1294  Q 3934 928 3725 604  Q 3516 281 3123 101  Q 2731 -78 2241 -78  Q 1619 -78 1198 103  Q 778 284 539 648  Q 300 1013 288 1472  z " transform="scale(0.015625)" />
       <path id="ArialMT-65" d="M 2694 1069  L 3275 997  Q 3138 488 2766 206  Q 2394 -75 1816 -75  Q 1088 -75 661 373  Q 234 822 234 1631  Q 234 2469 665 2931  Q 1097 3394 1784 3394  Q 2450 3394 2872 2941  Q 3294 2488 3294 1666  Q 3294 1616 3291 1516  L 816 1516  Q 847 969 1125 678  Q 1403 388 1819 388  Q 2128 388 2347 550  Q 2566 713 2694 1069  z M 847 1978  L 2700 1978  Q 2663 2397 2488 2606  Q 2219 2931 1791 2931  Q 1403 2931 1139 2672  Q 875 2413 847 1978  z " transform="scale(0.015625)" />
       <path id="ArialMT-78" d="M 47 0  L 1259 1725  L 138 3319  L 841 3319  L 1350 2541  Q 1494 2319 1581 2169  Q 1719 2375 1834 2534  L 2394 3319  L 3066 3319  L 1919 1756  L 3153 0  L 2463 0  L 1781 1031  L 1600 1309  L 728 0  L 47 0  z " transform="scale(0.015625)" />
       <path id="ArialMT-5f" d="M -97 -1272  L -97 -866  L 3631 -866  L 3631 -1272  L -97 -1272  z " transform="scale(0.015625)" />
       <path id="ArialMT-6c" d="M 409 0  L 409 4581  L 972 4581  L 972 0  L 409 0  z " transform="scale(0.015625)" />
       <path id="ArialMT-61" d="M 2588 409  Q 2275 144 1986 34  Q 1697 -75 1366 -75  Q 819 -75 525 192  Q 231 459 231 875  Q 231 1119 342 1320  Q 453 1522 633 1644  Q 813 1766 1038 1828  Q 1203 1872 1538 1913  Q 2219 1994 2541 2106  Q 2544 2222 2544 2253  Q 2544 2597 2384 2738  Q 2169 2928 1744 2928  Q 1347 2928 1158 2789  Q 969 2650 878 2297  L 328 2372  Q 403 2725 575 2942  Q 747 3159 1072 3276  Q 1397 3394 1825 3394  Q 2250 3394 2515 3294  Q 2781 3194 2906 3042  Q 3031 2891 3081 2659  Q 3109 2516 3109 2141  L 3109 1391  Q 3109 606 3145 398  Q 3181 191 3288 0  L 2700 0  Q 2613 175 2588 409  z M 2541 1666  Q 2234 1541 1622 1453  Q 1275 1403 1131 1340  Q 988 1278 909 1158  Q 831 1038 831 891  Q 831 666 1001 516  Q 1172 366 1500 366  Q 1825 366 2078 508  Q 2331 650 2450 897  Q 2541 1088 2541 1459  L 2541 1666  z " transform="scale(0.015625)" />
       <path id="ArialMT-62" d="M 941 0  L 419 0  L 419 4581  L 981 4581  L 981 2947  Q 1338 3394 1891 3394  Q 2197 3394 2470 3270  Q 2744 3147 2920 2923  Q 3097 2700 3197 2384  Q 3297 2069 3297 1709  Q 3297 856 2875 390  Q 2453 -75 1863 -75  Q 1275 -75 941 416  L 941 0  z M 934 1684  Q 934 1088 1097 822  Q 1363 388 1816 388  Q 2184 388 2453 708  Q 2722 1028 2722 1663  Q 2722 2313 2464 2622  Q 2206 2931 1841 2931  Q 1472 2931 1203 2611  Q 934 2291 934 1684  z " transform="scale(0.015625)" />
      </defs>
      <use xlink:href="#ArialMT-53" />
      <use xlink:href="#ArialMT-65" x="66.699219" />
      <use xlink:href="#ArialMT-78" x="122.314453" />
      <use xlink:href="#ArialMT-5f" x="172.314453" />
      <use xlink:href="#ArialMT-6c" x="227.929688" />
      <use xlink:href="#ArialMT-61" x="250.146484" />
      <use xlink:href="#ArialMT-62" x="305.761719" />
      <use xlink:href="#ArialMT-65" x="361.376953" />
      <use xlink:href="#ArialMT-6c" x="416.992188" />
     </g>
    </g>
   </g>
   <g id="matplotlib.axis_2">
    <g id="ytick_1">
     <g id="line2d_4">
      <defs>
       <path id="m373aa0aac4" d="M 0 0  L -3.5 0  " style="stroke: #000000; stroke-width: 0.3" />
      </defs>
      <g>
       <use xlink:href="#m373aa0aac4" x="20.34625" y="83.16" style="stroke: #000000; stroke-width: 0.3" />
      </g>
     </g>
     <g id="text_5">
      
      <g style="fill: #444443" transform="translate(8.8975 86.023125) scale(0.08 -0.08)">
       <use xlink:href="#ArialMT-30" />
      </g>
     </g>
    </g>
    <g id="ytick_2">
     <g id="line2d_5">
      <g>
       <use xlink:href="#m373aa0aac4" x="20.34625" y="3.96" style="stroke: #000000; stroke-width: 0.3" />
      </g>
     </g>
     <g id="text_6">
      
      <g style="fill: #444443" transform="translate(-0 6.823125) scale(0.08 -0.08)">
       <defs>
        <path id="ArialMT-37" d="M 303 3981  L 303 4522  L 3269 4522  L 3269 4084  Q 2831 3619 2401 2847  Q 1972 2075 1738 1259  Q 1569 684 1522 0  L 944 0  Q 953 541 1156 1306  Q 1359 2072 1739 2783  Q 2119 3494 2547 3981  L 303 3981  z " transform="scale(0.015625)" />
       </defs>
       <use xlink:href="#ArialMT-35" />
       <use xlink:href="#ArialMT-37" x="55.615234" />
       <use xlink:href="#ArialMT-37" x="111.230469" />
      </g>
     </g>
    </g>
   </g>
   <g id="patch_43">
    <path d="M 20.34625 83.16  L 20.34625 0  " style="fill: none; stroke: #444443; stroke-width: 0.3; stroke-linejoin: miter; stroke-linecap: square" />
   </g>
   <g id="patch_44">
    <path d="M 20.34625 83.16  L 204.48625 83.16  " style="fill: none; stroke: #444443; stroke-width: 0.3; stroke-linejoin: miter; stroke-linecap: square" />
   </g>
  </g>
 </g>
 <defs>
  <clipPath id="p3135558318">
   <rect x="20.34625" y="0" width="184.14" height="83.16" />
  </clipPath>
 </defs>
</svg></g>

<g id="edge3" class="edge">
<title>node0-&gt;node1</title>
<path fill="none" stroke="#d67c03" stroke-width="1.2" d="M150,-339.8C150,-335.55 150,-331.29 150,-327.16" />
<polygon fill="#d67c03" stroke="#d67c03" stroke-width="1.2" points="151.4,-327.08 150,-323.08 148.6,-327.08 151.4,-327.08" />
</g>

<g id="node6" class="node">
<title>X_y</title>
<polygon fill="none" stroke="black" stroke-width="0.3" points="291.5,-40 8.5,-40 8.5,-8 291.5,-8 291.5,-40" />
<polygon fill="white" stroke="transparent" points="11,-24 11,-38 45,-38 45,-24 11,-24" />
<text text-anchor="start" x="12" y="-28.2" font-family="Arial" font-size="11.00" fill="#d67c03">Pclass</text>
<polygon fill="white" stroke="transparent" points="45,-24 45,-38 69,-38 69,-24 45,-24" />
<text text-anchor="start" x="48" y="-28.2" font-family="Arial" font-size="11.00" fill="#444443">Age</text>
<polygon fill="white" stroke="transparent" points="69,-24 69,-38 99,-38 99,-24 69,-24" />
<text text-anchor="start" x="75" y="-28.2" font-family="Arial" font-size="11.00" fill="#d67c03">Fare</text>
<polygon fill="white" stroke="transparent" points="99,-24 99,-38 149,-38 149,-24 99,-24" />
<text text-anchor="start" x="100" y="-28.2" font-family="Arial" font-size="11.00" fill="#d67c03">Sex_label</text>
<polygon fill="white" stroke="transparent" points="149,-24 149,-38 209,-38 209,-24 149,-24" />
<text text-anchor="start" x="150" y="-28.2" font-family="Arial" font-size="11.00" fill="#444443">Cabin_label</text>
<polygon fill="white" stroke="transparent" points="209,-24 209,-38 290,-38 290,-24 209,-24" />
<text text-anchor="start" x="210" y="-28.2" font-family="Arial" font-size="11.00" fill="#444443">Embarked_label</text>
<polygon fill="white" stroke="transparent" points="11,-10 11,-24 45,-24 45,-10 11,-10" />
<text text-anchor="start" x="22" y="-14.2" font-family="Arial" font-size="11.00" fill="#d67c03">3.00</text>
<polygon fill="white" stroke="transparent" points="45,-10 45,-24 69,-24 69,-10 45,-10" />
<text text-anchor="start" x="46" y="-14.2" font-family="Arial" font-size="11.00" fill="#444443">4.00</text>
<polygon fill="white" stroke="transparent" points="69,-10 69,-24 99,-24 99,-10 69,-10" />
<text text-anchor="start" x="70" y="-14.2" font-family="Arial" font-size="11.00" fill="#d67c03">16.70</text>
<polygon fill="white" stroke="transparent" points="99,-10 99,-24 149,-24 149,-10 99,-10" />
<text text-anchor="start" x="126" y="-14.2" font-family="Arial" font-size="11.00" fill="#d67c03">0.00</text>
<polygon fill="white" stroke="transparent" points="149,-10 149,-24 209,-24 209,-10 149,-10" />
<text text-anchor="start" x="174" y="-14.2" font-family="Arial" font-size="11.00" fill="#444443">145.00</text>
<polygon fill="white" stroke="transparent" points="209,-10 209,-24 290,-24 290,-10 209,-10" />
<text text-anchor="start" x="267" y="-14.2" font-family="Arial" font-size="11.00" fill="#444443">2.00</text>
</g>

<g id="edge4" class="edge">
<title>leaf6-&gt;X_y</title>
<path fill="none" stroke="#d67c03" stroke-width="1.2" d="M150,-75.7C150,-62.99 150,-49.99 150,-40.34" />
<polygon fill="#d67c03" stroke="#d67c03" stroke-width="1.2" points="148.6,-76 150,-80 151.4,-76 148.6,-76" />
<text text-anchor="start" x="150" y="-63.2" font-family="Arial" font-size="11.00" fill="#444443"> &#160;Prediction</text>
<text text-anchor="start" x="159" y="-51.2" font-family="Arial" font-size="11.00" fill="#444443"> survive</text>
</g>

<g id="node5" class="node">
<title>legend</title>
<polygon fill="none" stroke="black" stroke-width="0" points="298.5,-411 237.5,-411 237.5,-364 298.5,-364 298.5,-411" />
<svg width="57px" height="43px" viewBox="0 0 76.173438 58.421875" version="1.1" preserveAspectRatio="xMinYMin meet" x="240" y="-408.5">
 <metadata>
  <rdf:RDF>
   <ns2:Work>
    <dc:type rdf:resource="http://purl.org/dc/dcmitype/StillImage" />
    <dc:date>2023-09-20T13:51:40.627257</dc:date>
    <dc:format>image/svg+xml</dc:format>
    <dc:creator>
     <ns2:Agent>
      <dc:title>Matplotlib v3.6.2, https://matplotlib.org/</dc:title>
     </ns2:Agent>
    </dc:creator>
   </ns2:Work>
  </rdf:RDF>
 </metadata>
 <defs>
  <style type="text/css">*{stroke-linejoin: round; stroke-linecap: butt}</style>
 </defs>
 <g id="figure_1">
  <g id="patch_1">
   <path d="M 0 58.421875  L 76.173438 58.421875  L 76.173438 0  L 0 0  z " style="fill: #ffffff" />
  </g>
  <g id="axes_1">
   <g id="legend_1">
    <g id="patch_2">
     <path d="M 2 58.421875  L 69.173438 58.421875  Q 71.173438 58.421875 71.173438 56.421875  L 71.173438 7  Q 71.173438 5 69.173438 5  L 2 5  Q 0 5 0 7  L 0 56.421875  Q 0 58.421875 2 58.421875  z " style="fill: #ffffff; opacity: 0.8; stroke: #444443; stroke-width: 0.5; stroke-linejoin: miter" />
    </g>
    <g id="text_1">
     
     <g style="fill: #444443" transform="translate(14.467188 20.157812) scale(0.1 -0.1)">
      <defs>
       <path id="Arial-BoldMT-53" d="M 231 1491  L 1131 1578  Q 1213 1125 1461 912  Q 1709 700 2131 700  Q 2578 700 2804 889  Q 3031 1078 3031 1331  Q 3031 1494 2936 1608  Q 2841 1722 2603 1806  Q 2441 1863 1863 2006  Q 1119 2191 819 2459  Q 397 2838 397 3381  Q 397 3731 595 4036  Q 794 4341 1167 4500  Q 1541 4659 2069 4659  Q 2931 4659 3367 4281  Q 3803 3903 3825 3272  L 2900 3231  Q 2841 3584 2645 3739  Q 2450 3894 2059 3894  Q 1656 3894 1428 3728  Q 1281 3622 1281 3444  Q 1281 3281 1419 3166  Q 1594 3019 2269 2859  Q 2944 2700 3267 2529  Q 3591 2359 3773 2064  Q 3956 1769 3956 1334  Q 3956 941 3737 597  Q 3519 253 3119 86  Q 2719 -81 2122 -81  Q 1253 -81 787 320  Q 322 722 231 1491  z " transform="scale(0.015625)" />
       <path id="Arial-BoldMT-75" d="M 2644 0  L 2644 497  Q 2463 231 2167 78  Q 1872 -75 1544 -75  Q 1209 -75 943 72  Q 678 219 559 484  Q 441 750 441 1219  L 441 3319  L 1319 3319  L 1319 1794  Q 1319 1094 1367 936  Q 1416 778 1544 686  Q 1672 594 1869 594  Q 2094 594 2272 717  Q 2450 841 2515 1023  Q 2581 1206 2581 1919  L 2581 3319  L 3459 3319  L 3459 0  L 2644 0  z " transform="scale(0.015625)" />
       <path id="Arial-BoldMT-72" d="M 1300 0  L 422 0  L 422 3319  L 1238 3319  L 1238 2847  Q 1447 3181 1614 3287  Q 1781 3394 1994 3394  Q 2294 3394 2572 3228  L 2300 2463  Q 2078 2606 1888 2606  Q 1703 2606 1575 2504  Q 1447 2403 1373 2137  Q 1300 1872 1300 1025  L 1300 0  z " transform="scale(0.015625)" />
       <path id="Arial-BoldMT-76" d="M 1372 0  L 34 3319  L 956 3319  L 1581 1625  L 1763 1059  Q 1834 1275 1853 1344  Q 1897 1484 1947 1625  L 2578 3319  L 3481 3319  L 2163 0  L 1372 0  z " transform="scale(0.015625)" />
       <path id="Arial-BoldMT-69" d="M 459 3769  L 459 4581  L 1338 4581  L 1338 3769  L 459 3769  z M 459 0  L 459 3319  L 1338 3319  L 1338 0  L 459 0  z " transform="scale(0.015625)" />
       <path id="Arial-BoldMT-65" d="M 2381 1056  L 3256 909  Q 3088 428 2723 176  Q 2359 -75 1813 -75  Q 947 -75 531 491  Q 203 944 203 1634  Q 203 2459 634 2926  Q 1066 3394 1725 3394  Q 2466 3394 2894 2905  Q 3322 2416 3303 1406  L 1103 1406  Q 1113 1016 1316 798  Q 1519 581 1822 581  Q 2028 581 2168 693  Q 2309 806 2381 1056  z M 2431 1944  Q 2422 2325 2234 2523  Q 2047 2722 1778 2722  Q 1491 2722 1303 2513  Q 1116 2303 1119 1944  L 2431 1944  z " transform="scale(0.015625)" />
       <path id="Arial-BoldMT-64" d="M 3503 0  L 2688 0  L 2688 488  Q 2484 203 2207 64  Q 1931 -75 1650 -75  Q 1078 -75 670 386  Q 263 847 263 1672  Q 263 2516 659 2955  Q 1056 3394 1663 3394  Q 2219 3394 2625 2931  L 2625 4581  L 3503 4581  L 3503 0  z M 1159 1731  Q 1159 1200 1306 963  Q 1519 619 1900 619  Q 2203 619 2415 876  Q 2628 1134 2628 1647  Q 2628 2219 2422 2470  Q 2216 2722 1894 2722  Q 1581 2722 1370 2473  Q 1159 2225 1159 1731  z " transform="scale(0.015625)" />
      </defs>
      <use xlink:href="#Arial-BoldMT-53" />
      <use xlink:href="#Arial-BoldMT-75" x="66.699219" />
      <use xlink:href="#Arial-BoldMT-72" x="127.783203" />
      <use xlink:href="#Arial-BoldMT-76" x="166.699219" />
      <use xlink:href="#Arial-BoldMT-69" x="222.314453" />
      <use xlink:href="#Arial-BoldMT-76" x="250.097656" />
      <use xlink:href="#Arial-BoldMT-65" x="305.712891" />
      <use xlink:href="#Arial-BoldMT-64" x="361.328125" />
     </g>
    </g>
    <g id="patch_3">
     <path d="M 8 34.289062  L 28 34.289062  L 28 27.289062  L 8 27.289062  z " style="fill: #fefebb; stroke: #444443; stroke-width: 0.4; stroke-linejoin: miter" />
    </g>
    <g id="text_2">
     
     <g style="fill: #444443" transform="translate(31.5 34.289062) scale(0.1 -0.1)">
      <defs>
       <path id="ArialMT-70" d="M 422 -1272  L 422 3319  L 934 3319  L 934 2888  Q 1116 3141 1344 3267  Q 1572 3394 1897 3394  Q 2322 3394 2647 3175  Q 2972 2956 3137 2557  Q 3303 2159 3303 1684  Q 3303 1175 3120 767  Q 2938 359 2589 142  Q 2241 -75 1856 -75  Q 1575 -75 1351 44  Q 1128 163 984 344  L 984 -1272  L 422 -1272  z M 931 1641  Q 931 1000 1190 694  Q 1450 388 1819 388  Q 2194 388 2461 705  Q 2728 1022 2728 1688  Q 2728 2322 2467 2637  Q 2206 2953 1844 2953  Q 1484 2953 1207 2617  Q 931 2281 931 1641  z " transform="scale(0.015625)" />
       <path id="ArialMT-65" d="M 2694 1069  L 3275 997  Q 3138 488 2766 206  Q 2394 -75 1816 -75  Q 1088 -75 661 373  Q 234 822 234 1631  Q 234 2469 665 2931  Q 1097 3394 1784 3394  Q 2450 3394 2872 2941  Q 3294 2488 3294 1666  Q 3294 1616 3291 1516  L 816 1516  Q 847 969 1125 678  Q 1403 388 1819 388  Q 2128 388 2347 550  Q 2566 713 2694 1069  z M 847 1978  L 2700 1978  Q 2663 2397 2488 2606  Q 2219 2931 1791 2931  Q 1403 2931 1139 2672  Q 875 2413 847 1978  z " transform="scale(0.015625)" />
       <path id="ArialMT-72" d="M 416 0  L 416 3319  L 922 3319  L 922 2816  Q 1116 3169 1280 3281  Q 1444 3394 1641 3394  Q 1925 3394 2219 3213  L 2025 2691  Q 1819 2813 1613 2813  Q 1428 2813 1281 2702  Q 1134 2591 1072 2394  Q 978 2094 978 1738  L 978 0  L 416 0  z " transform="scale(0.015625)" />
       <path id="ArialMT-69" d="M 425 3934  L 425 4581  L 988 4581  L 988 3934  L 425 3934  z M 425 0  L 425 3319  L 988 3319  L 988 0  L 425 0  z " transform="scale(0.015625)" />
       <path id="ArialMT-73" d="M 197 991  L 753 1078  Q 800 744 1014 566  Q 1228 388 1613 388  Q 2000 388 2187 545  Q 2375 703 2375 916  Q 2375 1106 2209 1216  Q 2094 1291 1634 1406  Q 1016 1563 777 1677  Q 538 1791 414 1992  Q 291 2194 291 2438  Q 291 2659 392 2848  Q 494 3038 669 3163  Q 800 3259 1026 3326  Q 1253 3394 1513 3394  Q 1903 3394 2198 3281  Q 2494 3169 2634 2976  Q 2775 2784 2828 2463  L 2278 2388  Q 2241 2644 2061 2787  Q 1881 2931 1553 2931  Q 1166 2931 1000 2803  Q 834 2675 834 2503  Q 834 2394 903 2306  Q 972 2216 1119 2156  Q 1203 2125 1616 2013  Q 2213 1853 2448 1751  Q 2684 1650 2818 1456  Q 2953 1263 2953 975  Q 2953 694 2789 445  Q 2625 197 2315 61  Q 2006 -75 1616 -75  Q 969 -75 630 194  Q 291 463 197 991  z " transform="scale(0.015625)" />
       <path id="ArialMT-68" d="M 422 0  L 422 4581  L 984 4581  L 984 2938  Q 1378 3394 1978 3394  Q 2347 3394 2619 3248  Q 2891 3103 3008 2847  Q 3125 2591 3125 2103  L 3125 0  L 2563 0  L 2563 2103  Q 2563 2525 2380 2717  Q 2197 2909 1863 2909  Q 1613 2909 1392 2779  Q 1172 2650 1078 2428  Q 984 2206 984 1816  L 984 0  L 422 0  z " transform="scale(0.015625)" />
      </defs>
      <use xlink:href="#ArialMT-70" />
      <use xlink:href="#ArialMT-65" x="55.615234" />
      <use xlink:href="#ArialMT-72" x="111.230469" />
      <use xlink:href="#ArialMT-69" x="144.53125" />
      <use xlink:href="#ArialMT-73" x="166.748047" />
      <use xlink:href="#ArialMT-68" x="216.748047" />
     </g>
    </g>
    <g id="patch_4">
     <path d="M 8 48.434375  L 28 48.434375  L 28 41.434375  L 8 41.434375  z " style="fill: #a1dab4; stroke: #444443; stroke-width: 0.4; stroke-linejoin: miter" />
    </g>
    <g id="text_3">
     
     <g style="fill: #444443" transform="translate(31.5 48.434375) scale(0.1 -0.1)">
      <defs>
       <path id="ArialMT-75" d="M 2597 0  L 2597 488  Q 2209 -75 1544 -75  Q 1250 -75 995 37  Q 741 150 617 320  Q 494 491 444 738  Q 409 903 409 1263  L 409 3319  L 972 3319  L 972 1478  Q 972 1038 1006 884  Q 1059 663 1231 536  Q 1403 409 1656 409  Q 1909 409 2131 539  Q 2353 669 2445 892  Q 2538 1116 2538 1541  L 2538 3319  L 3100 3319  L 3100 0  L 2597 0  z " transform="scale(0.015625)" />
       <path id="ArialMT-76" d="M 1344 0  L 81 3319  L 675 3319  L 1388 1331  Q 1503 1009 1600 663  Q 1675 925 1809 1294  L 2547 3319  L 3125 3319  L 1869 0  L 1344 0  z " transform="scale(0.015625)" />
      </defs>
      <use xlink:href="#ArialMT-73" />
      <use xlink:href="#ArialMT-75" x="50" />
      <use xlink:href="#ArialMT-72" x="105.615234" />
      <use xlink:href="#ArialMT-76" x="138.916016" />
      <use xlink:href="#ArialMT-69" x="188.916016" />
      <use xlink:href="#ArialMT-76" x="211.132812" />
      <use xlink:href="#ArialMT-65" x="261.132812" />
     </g>
    </g>
   </g>
  </g>
 </g>
</svg></g>
</g>
</svg>