<?xml version="1.0" encoding="UTF-8" standalone="no"?>
<!DOCTYPE svg PUBLIC "-//W3C//DTD SVG 1.1//EN"
 "http://www.w3.org/Graphics/SVG/1.1/DTD/svg11.dtd">
<!-- Generated by graphviz version 2.43.0 (0)
 -->
<!-- Title: G Pages: 1 -->
<svg width="181pt" height="161pt"
 viewBox="0.00 0.00 181.00 161.00" xmlns="http://www.w3.org/2000/svg" xmlns:xlink="http://www.w3.org/1999/xlink">
<g id="graph0" class="graph" transform="scale(1 1) rotate(0) translate(4 157)">
<title>G</title>
<polygon fill="white" stroke="transparent" points="-4,4 -4,-157 177,-157 177,4 -4,4"/>
<!-- node140408362828992 -->
<g id="node1" class="node">
<title>node140408362828992</title>
<polygon fill="#fefecd" stroke="#444443" stroke-width="0.5" points="106,-153 21,-153 21,-97 106,-97 106,-153"/>
<polygon fill="#fefecd" stroke="transparent" points="23.5,-137 23.5,-151 104.5,-151 104.5,-137 23.5,-137"/>
<polyline fill="none" stroke="#444443" points="23.5,-137 104.5,-137 "/>
<text text-anchor="start" x="24.5" y="-141.2" font-family="Times,serif" font-style="italic" font-size="11.00" fill="#444443">DecisionNode</text>
<polygon fill="#fefecd" stroke="transparent" points="23.5,-135 23.5,-137 104.5,-137 104.5,-135 23.5,-135"/>
<polygon fill="#fefecd" stroke="transparent" points="23.5,-121 23.5,-135 62.5,-135 62.5,-121 23.5,-121"/>
<polyline fill="none" stroke="#444443" points="62.5,-121 62.5,-135 "/>
<text text-anchor="start" x="33.5" y="-125.2" font-family="Helvetica,sans-Serif" font-size="11.00" fill="#444443">split </text>
<polygon fill="#fefecd" stroke="transparent" points="66.5,-121 66.5,-135 104.5,-135 104.5,-121 66.5,-121"/>
<text text-anchor="start" x="67.5" y="-125.2" font-family="Helvetica,sans-Serif" font-size="11.00" fill="#444443"> &#39;850&#39;</text>
<polyline fill="none" stroke="#444443" points="23.5,-118 104.5,-118 "/>
<polygon fill="#fefecd" stroke="transparent" points="23.5,-116 23.5,-118 104.5,-118 104.5,-116 23.5,-116"/>
<polygon fill="#fefecd" stroke="transparent" points="23.5,-107 23.5,-116 62.5,-116 62.5,-107 23.5,-107"/>
<polyline fill="none" stroke="#444443" points="62.5,-107 62.5,-116 "/>
<text text-anchor="start" x="24.5" y="-110.2" font-family="Helvetica,sans-Serif" font-size="6.00" fill="#444443">left</text>
<polygon fill="#fefecd" stroke="transparent" points="62.5,-107 62.5,-116 66.5,-116 66.5,-107 62.5,-107"/>
<polygon fill="#fefecd" stroke="transparent" points="66.5,-107 66.5,-116 104.5,-116 104.5,-107 66.5,-107"/>
<text text-anchor="start" x="89.5" y="-110.2" font-family="Helvetica,sans-Serif" font-size="6.00" fill="#444443">right</text>
<polygon fill="#fefecd" stroke="transparent" points="23.5,-104 23.5,-107 62.5,-107 62.5,-104 23.5,-104"/>
<polyline fill="none" stroke="#444443" points="62.5,-104 62.5,-107 "/>
<text text-anchor="start" x="42.86" y="-105.1" font-family="Helvetica,sans-Serif" font-size="1.00" fill="#444443"> </text>
<polygon fill="#fefecd" stroke="transparent" points="62.5,-104 62.5,-107 66.5,-107 66.5,-104 62.5,-104"/>
<polygon fill="#fefecd" stroke="transparent" points="66.5,-104 66.5,-107 104.5,-107 104.5,-104 66.5,-104"/>
<text text-anchor="start" x="85.36" y="-105.2" font-family="Helvetica,sans-Serif" font-size="1.00" fill="#444443"> </text>
<polygon fill="#fefecd" stroke="transparent" points="23.5,-99 23.5,-104 62.5,-104 62.5,-99 23.5,-99"/>
<polyline fill="none" stroke="#444443" points="62.5,-99 62.5,-104 "/>
<text text-anchor="start" x="42.5" y="-100.6" font-family="Helvetica,sans-Serif" font-size="3.00" fill="#444443"> </text>
<polygon fill="#fefecd" stroke="transparent" points="62.5,-99 62.5,-104 66.5,-104 66.5,-99 62.5,-99"/>
<polygon fill="#fefecd" stroke="transparent" points="66.5,-99 66.5,-104 104.5,-104 104.5,-99 66.5,-99"/>
<text text-anchor="start" x="85" y="-100.6" font-family="Helvetica,sans-Serif" font-size="3.00" fill="#444443"> </text>
</g>
<!-- node140408362830912 -->
<g id="node2" class="node">
<title>node140408362830912</title>
<polygon fill="#fefecd" stroke="#444443" stroke-width="0.5" points="61,-75 0,-75 0,-41 61,-41 61,-75"/>
<polygon fill="#fefecd" stroke="transparent" points="2.5,-59 2.5,-73 59.5,-73 59.5,-59 2.5,-59"/>
<polyline fill="none" stroke="#444443" points="2.5,-59 59.5,-59 "/>
<text text-anchor="start" x="3.5" y="-63.2" font-family="Times,serif" font-style="italic" font-size="11.00" fill="#444443">LeafNode</text>
<polygon fill="#fefecd" stroke="transparent" points="2.5,-57 2.5,-59 59.5,-59 59.5,-57 2.5,-57"/>
<polygon fill="#fefecd" stroke="transparent" points="2.5,-43 2.5,-57 28.5,-57 28.5,-43 2.5,-43"/>
<polyline fill="none" stroke="#444443" points="28.5,-43 28.5,-57 "/>
<text text-anchor="start" x="16.5" y="-47.2" font-family="Helvetica,sans-Serif" font-size="11.00" fill="#444443">y </text>
<polygon fill="#fefecd" stroke="transparent" points="34.5,-43 34.5,-57 59.5,-57 59.5,-43 34.5,-43"/>
<text text-anchor="start" x="35.5" y="-47.2" font-family="Helvetica,sans-Serif" font-size="11.00" fill="#444443"> &#160;&#160;&#160;</text>
</g>
<!-- node140408362828992&#45;&gt;node140408362830912 -->
<g id="edge1" class="edge">
<title>node140408362828992:c&#45;&gt;node140408362830912</title>
<path fill="none" stroke="#444443" stroke-width="0.5" d="M41.61,-100.65C40.38,-96.06 38.08,-87.44 35.89,-79.23"/>
<ellipse fill="#444443" stroke="#444443" stroke-width="0.5" cx="42.09" cy="-102.45" rx="1.6" ry="1.6"/>
<polygon fill="#444443" stroke="#444443" stroke-width="0.5" points="37.22,-78.75 34.83,-75.25 34.51,-79.47 37.22,-78.75"/>
</g>
<!-- node140408362830864 -->
<g id="node4" class="node">
<title>node140408362830864</title>
<polygon fill="#fefecd" stroke="#444443" stroke-width="0.5" points="134,-75 73,-75 73,-41 134,-41 134,-75"/>
<polygon fill="#fefecd" stroke="transparent" points="75.5,-59 75.5,-73 132.5,-73 132.5,-59 75.5,-59"/>
<polyline fill="none" stroke="#444443" points="75.5,-59 132.5,-59 "/>
<text text-anchor="start" x="76.5" y="-63.2" font-family="Times,serif" font-style="italic" font-size="11.00" fill="#444443">LeafNode</text>
<polygon fill="#fefecd" stroke="transparent" points="75.5,-57 75.5,-59 132.5,-59 132.5,-57 75.5,-57"/>
<polygon fill="#fefecd" stroke="transparent" points="75.5,-43 75.5,-57 101.5,-57 101.5,-43 75.5,-43"/>
<polyline fill="none" stroke="#444443" points="101.5,-43 101.5,-57 "/>
<text text-anchor="start" x="89.5" y="-47.2" font-family="Helvetica,sans-Serif" font-size="11.00" fill="#444443">y </text>
<polygon fill="#fefecd" stroke="transparent" points="107.5,-43 107.5,-57 132.5,-57 132.5,-43 107.5,-43"/>
<text text-anchor="start" x="108.5" y="-47.2" font-family="Helvetica,sans-Serif" font-size="11.00" fill="#444443"> &#160;&#160;&#160;</text>
</g>
<!-- node140408362828992&#45;&gt;node140408362830864 -->
<g id="edge2" class="edge">
<title>node140408362828992:c&#45;&gt;node140408362830864</title>
<path fill="none" stroke="#444443" stroke-width="0.5" d="M86.7,-101C88.49,-96.52 92.02,-87.71 95.37,-79.31"/>
<ellipse fill="#444443" stroke="#444443" stroke-width="0.5" cx="86.09" cy="-102.51" rx="1.6" ry="1.6"/>
<polygon fill="#444443" stroke="#444443" stroke-width="0.5" points="96.82,-79.48 97,-75.25 94.22,-78.44 96.82,-79.48"/>
</g>
<!-- node140408362829616 -->
<g id="node3" class="node">
<title>node140408362829616</title>
<polygon fill="none" stroke="black" stroke-width="0.5" points="70.5,-19 6.5,-19 6.5,0 70.5,0 70.5,-19"/>
<polygon fill="#fefecd" stroke="transparent" points="7.5,-0.5 7.5,-17.5 38.5,-17.5 38.5,-0.5 7.5,-0.5"/>
<text text-anchor="start" x="10.5" y="-6.5" font-family="Helvetica,sans-Serif" font-size="10.00" fill="#444443">1160</text>
<polygon fill="#fefecd" stroke="transparent" points="38.5,-0.5 38.5,-17.5 69.5,-17.5 69.5,-0.5 38.5,-0.5"/>
<text text-anchor="start" x="41.5" y="-6.5" font-family="Helvetica,sans-Serif" font-size="10.00" fill="#444443">1200</text>
</g>
<!-- node140408362830912&#45;&gt;node140408362829616 -->
<g id="edge3" class="edge">
<title>node140408362830912:c&#45;&gt;node140408362829616</title>
<path fill="none" stroke="#444443" stroke-width="0.5" d="M46.69,-45.55C45.52,-40.55 43.3,-31.05 41.47,-23.2"/>
<ellipse fill="#444443" stroke="#444443" stroke-width="0.5" cx="47.14" cy="-47.44" rx="1.6" ry="1.6"/>
<polygon fill="#444443" stroke="#444443" stroke-width="0.5" points="42.77,-22.62 40.5,-19.04 40.04,-23.26 42.77,-22.62"/>
</g>
<!-- node140408362830672 -->
<g id="node5" class="node">
<title>node140408362830672</title>
<polygon fill="none" stroke="black" stroke-width="0.5" points="173,-19 78,-19 78,0 173,0 173,-19"/>
<polygon fill="#fefecd" stroke="transparent" points="79.5,-0.5 79.5,-17.5 110.5,-17.5 110.5,-0.5 79.5,-0.5"/>
<text text-anchor="start" x="82.5" y="-6.5" font-family="Helvetica,sans-Serif" font-size="10.00" fill="#444443">1280</text>
<polygon fill="#fefecd" stroke="transparent" points="110.5,-0.5 110.5,-17.5 141.5,-17.5 141.5,-0.5 110.5,-0.5"/>
<text text-anchor="start" x="113.5" y="-6.5" font-family="Helvetica,sans-Serif" font-size="10.00" fill="#444443">1450</text>
<polygon fill="#fefecd" stroke="transparent" points="141.5,-0.5 141.5,-17.5 172.5,-17.5 172.5,-0.5 141.5,-0.5"/>
<text text-anchor="start" x="144.5" y="-6.5" font-family="Helvetica,sans-Serif" font-size="10.00" fill="#444443">1300</text>
</g>
<!-- node140408362830864&#45;&gt;node140408362830672 -->
<g id="edge4" class="edge">
<title>node140408362830864:c&#45;&gt;node140408362830672</title>
<path fill="none" stroke="#444443" stroke-width="0.5" d="M120.95,-45.55C121.6,-40.55 122.83,-31.05 123.85,-23.2"/>
<ellipse fill="#444443" stroke="#444443" stroke-width="0.5" cx="120.71" cy="-47.41" rx="1.6" ry="1.6"/>
<polygon fill="#444443" stroke="#444443" stroke-width="0.5" points="125.26,-23.19 124.39,-19.04 122.49,-22.83 125.26,-23.19"/>
</g>
</g>
</svg>